<mxfile host="65bd71144e">
    <diagram id="I80TIDN5uAMlmGZZg3Ye" name="Page-1">
        <mxGraphModel dx="1836" dy="466" grid="1" gridSize="10" guides="1" tooltips="1" connect="1" arrows="1" fold="1" page="1" pageScale="1" pageWidth="850" pageHeight="1100" math="0" shadow="0">
            <root>
                <mxCell id="0"/>
                <mxCell id="1" parent="0"/>
                <mxCell id="20" style="edgeStyle=none;html=1;entryX=0;entryY=0.5;entryDx=0;entryDy=0;" edge="1" parent="1" source="15" target="19">
                    <mxGeometry relative="1" as="geometry"/>
                </mxCell>
                <mxCell id="15" value="" style="shape=image;verticalLabelPosition=bottom;labelBackgroundColor=default;verticalAlign=top;aspect=fixed;imageAspect=0;image=data:image/png,iVBORw0KGgoAAAANSUhEUgAAAGcAAAAhCAYAAADEQLWIAAAAAXNSR0IArs4c6QAAAARnQU1BAACxjwv8YQUAAAAJcEhZcwAAEnQAABJ0Ad5mH3gAAAsgSURBVGhD7Zp5WFTlHse/bANiCMlqKmhu4YILoNh1v2qFS2mKV02jS2Vqam6J5lL3all6XUjNfbtYeqUUt1Qw7WYii+tNApFFBAQUGPY5zJn59scwMHOYGQQR7/PY53nm4Tnv733P7533e87vfX+/wYwk8Sf/l5hLGxoTtShAVEtbGxM1BIWIxp+CGipV7V6fkjhqyGPWYrz/ckQVS22Nh3BrFbxc/HE0X2p5wgi3sXXSGCyNyIFKatPhqYhTHLMSoyacQb91K9DfXmptPMTiXBQV56FQqP0pblCsX8K0dVORNfc1zD3zwKhAjS6OmBWGGQE70WZ9KGZ3tZWanxksW76JkD0jcTFoKrYlClIz0OjiiOn49t33EdF3I9aMcoWF1P6M8ZzvImx7+y6WTAlBvAF9GlEcNfIjVyD4QgcEfzYCbs+6MgCApvCe8zmGp67CRwfSIEqsjSdO2Q2sn7sfwuvLMbWjTGp9ZjF3GY6Fgc8jIngFzhdIbPqXT47C6M3YkeCMMdMGoLnU+ExjC6/Ad+H5IAzrzmTrHesbSZw8/Lzle+Q4+2Oyt53U+Mxj3W4E3mxfhoiQI7irE9saRxx5DEIj5bDtPRJej6SNiOL0G7gQfgih+/Zg36HjOB8Tj/R8ReMnjKpipMWeRljoXuzZfwjhEdFIKVZBXZaOqMgreGDsHFwXbNpj2GA3qGIO4EJO9Tc0M1W+UZck4sTWLTh8KRGZBQqojfbUYGZmgabt3sTqTTPQ1aa6vSxmPjr3WYdmaxNxdX5HWOoO0kNEVuS/MG/OpzgUr0ATx5Zo6eoIWVkGktLyoQTg6DsF8xYHY9brnWH3mI9W6eVZaN/3Ej7PisU7LSQ3K7uNg0unY9Hmn5Dr2Ald2nvAzbYCuak3EXu7HA6ycsgr/LDvfhSmuukPrTtqZIcORuspN/DGyTQc9nfQNNMIyqwTnONlRQB1+th0m89fi3XvJDJ1szcBBwb8KNc11EDM2MehNtp7uTLwbH6VrTQ5jLO7a+djzs6zzzJX1BteZ0qiPqQbenF3lkrfIGbzyEQXAs4ct+MG5XpmgffPLaWvDAR61xxbT0qj59EdYNuPY1la2WZYHEUCNw11pEu/mdxyLIqJOSVUFF3l8t7DuCtNQUEQKCgyecDfm/MvyTXXgkBBaWiixbw4/QUCHbjsernUqEdpzAJ66AjdbW0ilXr2RWxXZffgnKgSHWvdMSaOMmk9ewKE/TieKtAzVVLK2IVtGlQcMe0begNsMuIotY+kgcAg4NbGdxHisA6Xz23C9FF+6OjSFGaZZ3Eaf8XLLawhk8kgE1Px6z0n+LSz11zLZJBZGrgdBGQlPgBgD3cn00do25fG4a0elUGv6UAEvuquFwJtPV/DIBft1V2cOnUHCh17QyHkJCEXAAqP4ZNl3+FmvjQDsYXnhJkIDByLro8bWyuxaNYCrjZA+b0U5FW6q3lnMRd3OBmhO99C26q1FJF+OhwlLw9E68o2MecKrig7waOpzlhDqBUoLFIC5raws6npTg+7PlgZnYlbl2OQeC8S87robFwAYG6L5joVn8IseY3ErSGwaeUFdwsAqMC1TZPQ3bEJ3LyGIOCDJViz6ygu3imEjfcC7NmzCL7PSUfXE3Mb2NkAKH2IYu2XkrxdhhHiubpnS47Xecfzj71Bl66reEvQ61kT5R1u6A5CNozf50mNxlHKUxkX+R9u/3Ixp08azeGDXqaPV1s20wl7LkEXWCQdSJJUMuNwEH19p/G0CZ/GwhpVckYt70VLA3uq5iNjh1GLefB3Y2H10fzrUXSe7ziDaDWb2mhdy6OsQfH7d9id3AGjejTTtiDl0k0UWjvBrrYyjJkVrC0BqEWoKDVKUaEgbjfmjuwKJ4e28BkagA82nMVda08Mf3sBvti4EuNaSscYQLyHI6t3ITapEPUq4Jnbw295BH7ZOBk9DFbNK5B0/Av8rW8AdiZXSI31869WQakCYGUDSzNN0yOIU4IrO3cjxWME+jhqu5ch/VomBKhR63pb2KBZE3NALEOZ0lSWIuD29rHw9A3ChpO3UAh3jNt4CdnpcTi5ezXmB47B0N4d4WglHWeA/Fgc/w2w6jkS3R8przKARXP4zQ7Ftdw8JF0Kx+41i/HemH7oWHnKBQDIT2Fh8Bnk6TQB9fRPBUorANjYw7Zyo61VHHXOGazdn4mWwweglXYPEuW4lyMARVkoUEoG1KAJ3No1B1CIjBobazVCfAgmzTiGHACAGXqsPIF/z+4LZ72kqNZHAQBQ/NspXBUAz5G+cKr1G9akIiUUM8e+h713KgBZc7TvOxrvLPgc23/4BYl5pbh77guMcNX0lV+ORFKp/vh6+VfkIbsEsHR9EdpzUy1DK5By6EscK3LCIH9PVO3FagVKBAD34pAsmVhNrPGCpyuAPCTnGqiLA5qKdcz3uFKVbXtiwthOkBwHAGUhsoqkjRpU98Mxc4gvfHy80XvCPjwEkLljIvx8fDF4Whgy65DJC/cuIOzITny27TrKpEZzW7gP+Ri7v34NTQDAzBxmDeBfeJCCPADOnVpVr7N0X9KjJJrz24B47nUe1d3YlMmaTR4uDDpveEvWRR45hY4Afben01jemB8+mk2rNlxX/j1SmmCIzAqbRDedjdk58KeaBwJlMkN6gXAYbyRHqcbYgaDoQhBdAELWj+vjFXo2DSpm7htEK4DNJ56k3p5fB/+65IePoi2sOPjAfWpnY0IcFXPDx9MBoM2wA9SffwFPjLEjALZ4/7/UKwgYQHX/AAdbgc9POkujNYLiaC731qlItBjDdT9nUkFSVXyHESFT+VLznpz91Xg6afvYdufooAX859bTTKtcQ1XOQQ6zBq0G7pfMuSa1igMQzfpyzt6f+XtOOVUkhYI0xny7gP0dQNi/ws0J+uLVxX815by+tD2BblyTWH38NSGOnD8GOGjKLsceVqmpQWTG3sGUAbR746j+k2MIZTK/9jUn2i5inIkigarofzy4bCIHdHTQObZaEDBni78EcXN0PlVCGn9Y9Co93exooe1jM5A772reSe1b2vWrBNZ2yjcmTvHF6WwJe/oEreKqaYPY2qrSj3nl3yat6TN2KQ8nlEjWpW7+qxBTudkbRIelvKazPibEIRWZUTx5Ll5SW6pEyGZcZBTTSg0ZpYjM2DeE1ujIFTcMhQkpKiryM3jnt2uMvZbATLluEccU5YwLfpFAa350WVuhMo4xcSgWMStbZ+GVcmYm3mRsdAyvJ2SxxFhsrqN/LWL6Lg6wAr1Wx+sJalKchkSVe5Rj7cF2S67SxMvzeFTF+4DqeC/KmZacr1ej02JUnPpSR/8alEzZ3IeWsv7cmqrfq5bTWsNh7vwq/hHsjYzta3Auz1S+8xgUx+On24Bl95HQ5Mtq5J2ej8BN8U+kBleD+vgvvYpv1l2Fx4dfYnIb/R9TGk0cwBpdPvwas54/juXbTEz2MVAr8vCgDHDr3gHNzAEx8yiWrLfA3EV+aKgSmCnq7l/E3cPLsKMkAOuD+9Tso/cePXFUzL8wj52d+nOD5JTTIIj3efyDLnToMI4LF8/gxLGzeCDJeBBt8LBWR/9ixncc08KdU8IyDaYYjSwOSSqYsMWf7t6L+Ut+Ay2KHkoWpNzkzbQig19YlwYXh3x0/6W3GPKKB/0+jamZq1XyFMTRVH1j145ir4A9THnk82bDUx67gK0s/RiaI7U8YcRsHp/em4M/OWfy11yT/0PwZKnA/bgYlHv2w4u1/Sb0pFCk4lzEQ3j5+8L5UavHDUFFFqKvKtHNz6O6VGOApyjOn9TGH67j5z3XMBtXAAAAAElFTkSuQmCC;" vertex="1" parent="1">
                    <mxGeometry x="29.25" y="760" width="103" height="33" as="geometry"/>
                </mxCell>
                <mxCell id="17" style="edgeStyle=none;html=1;entryX=0.5;entryY=0;entryDx=0;entryDy=0;" edge="1" parent="1" source="16" target="15">
                    <mxGeometry relative="1" as="geometry"/>
                </mxCell>
                <mxCell id="32" style="edgeStyle=none;html=1;" edge="1" parent="1" source="16" target="31">
                    <mxGeometry relative="1" as="geometry"/>
                </mxCell>
                <mxCell id="16" value="Política" style="rounded=1;whiteSpace=wrap;html=1;" vertex="1" parent="1">
                    <mxGeometry x="40" y="690" width="81.5" height="30" as="geometry"/>
                </mxCell>
                <mxCell id="22" style="edgeStyle=none;html=1;entryX=0.5;entryY=0;entryDx=0;entryDy=0;" edge="1" parent="1" source="19" target="21">
                    <mxGeometry relative="1" as="geometry"/>
                </mxCell>
                <mxCell id="19" value="El objetivo de la política es máximizar la recompensa" style="text;html=1;align=center;verticalAlign=middle;whiteSpace=wrap;rounded=0;" vertex="1" parent="1">
                    <mxGeometry x="200" y="761.5" width="310" height="30" as="geometry"/>
                </mxCell>
                <mxCell id="24" style="edgeStyle=none;html=1;" edge="1" parent="1" source="21" target="23">
                    <mxGeometry relative="1" as="geometry"/>
                </mxCell>
                <mxCell id="21" value="" style="shape=image;verticalLabelPosition=bottom;labelBackgroundColor=default;verticalAlign=top;aspect=fixed;imageAspect=0;image=data:image/png,iVBORw0KGgoAAAANSUhEUgAAATgAAAArCAYAAADsSpTrAAAAAXNSR0IArs4c6QAAAARnQU1BAACxjwv8YQUAAAAJcEhZcwAAEnQAABJ0Ad5mH3gAABw5SURBVHhe7Z13VFRHG8YfOqIISlWiWBHsCtgbxhbjp2JviV0TY+wmVjRFTYy9xR4xYCUqKkZjj2gUbKCIREEsVKUIS3P38nx/LGW5LLALSwrZ3zn3cHZndmf23plnZt73nUGHJKFFixYtFRBd8RtatGjRUlHQCpwWLVoqLFqB06JFS4VFK3BatGipsGgFTosWLRUWrcBp0aKlwqKjDRPRokWRd3gbl4A0Iadb6OjD1MoapvrifJoiG7KsbOga6WtnGwCQLUCAHvRKvBnZSE+IQ3JWrnzpwMjcBhYmBT9Y4tcAQMKxfjDT0YFOuV6tsCbsnbhoLVr+WiS3ML9lTdjZ2cmvmi7wuJMmzqUZspMRsGYo+nr8gVRx2n+UrD+3Y5T7EpyPE8RJBcmOw+G+Cs/JriY+PBovzqXaDE728gCGtxiNY0kAUBvj93thaiMj6IgzKoHZUmSlp0MiSYUkOQZPH97D3bv3cf9+EMITZAXyOn71APc9msKowLulREjF89AwxKVni1NUQ8cIFnUcUd9KI7XR8m9Bcg1THHogaGkgjvQ1A3QMYGZbE+aG4oxlJRUBX/fF8GuDcMp3NpqaiNP/q8gQ9csU9F5RBWvPrUdvKz1xhhwEpMVF4U0mgcxgfNN9CB6ufI6bY20LZqNKyBh7ajztAAIgmizkjRRxHnWRMv7uEa4Y344Wud9b90vezhDnKx1p975hFzszGud8t76ZBS0tLWlpYU4DgIARzS0saWFembq55edculUtWL0KCMev+TBT/M1aKjSpv3NyDWN2OfxGnKJBpIw6Oob2tcbweKxMnKiFqQxY2op2fbbysSr9T3KTs2oZsu2+GHEKVRQ4kkISr8xqmCcC9p/+xjeCOFNpkDExcAfHOuoReI+f35CIM5SNlOuc18CC/U8myl8nnuQAi7qcdT01P49MwtgngTzz40z2qmPISi2mc7/ncNo1WsR7GhJcLf8S/gKBkz735AfVbDjiWAy18lYEkgAucjKj6+oQlqhxxQicSjY4AICuObp+cwDLWsqnjM9/HIMZJ2JQwkpZBfRQzWUK9lw5iemN4uGzJ1Cz9gjTBmhpLUXsmwxkAxCSn+OlrDbaNaySn0evMmwauOCDTzbgXFgEvF38MHbsYUSV/cdp0VKQ7ERcWLYAVxouwFcf2qKoBdh/nsrOmLmyF56tmAXvyIKmLHVQXeAAoIoLFnj/gM5GABCPA+MnY/8zzTgG9Gz6Yq3vD3C8thv+SeLUsqAHPR2AOaY4ZkuRrV8JRkW1LEM7uG85jTVt5QtZLVo0SXrQeszen4UBHh/DQeN2vYqELqx7zce4auexYNlllFYS1BM4AMaNP4Pntg9RFQBS/PDp2K14lCnOVToMG03AisFJOH0nWZxU7mSG7MSiLUFIBwBjR4ye2QlV9XRVcqRo0aIab3Fr6y48tnLH1C7VxYlaxJg0x7hJTnjtsw7nYkvnLFRb4ABD1B27E3tHWgMAsq7Nw+hVtyERZysVVdB+pR+29jAXJ5QzMkRf/BEbPQOQkA0AurDo9iW+mfs/2GtHWS2aIuEqtv0SB6u+o+FsKk7UUhgj1P9wMBqkn8em489RmoVqKQQOgF5NuG/2wif2AJCN+1+PxJIrSSidxv4DyE7EvYvhyCTzlqX6NXpjxpQ2MC/dHdLyX6WYTpAc4IULySZo0685VNI3IRWRgWfh47UPP+0/DN/ztxCRKiA7/QX+uHAHr/8OG7EsFS+CrsD3sBc8f/LE4VOXEfDoBRIzi/nhZcC4QU+42QoI8L6CuFIUUeruq2vRE98dWIDGAICn2Dh6Nk6XFJz3jyQbb29uwLKTqcW1TS1aAEgQtGk03Lp0Rqv6jdDji5N4+Q5A2p/wWToEXdp3Rvde3dGt+xisvZUsak/p+PNCAJJRH25NzQqkFCL9Txya8z7sTarCacAsfLfzIH45sB0rpvdF/aqmsKhmjw49p+PX1+IPliOyaFz4fgSamFaFfcu+mDj3K6zesBoLxvVG2yb2sKhkjTYfr8TxRxruRyYO6OKgD+HhGQSliBNVQOxWVY80Bq1skxNXBpq7e/G5VJzn7+YND3asStfdURRISp+uY0uLPjwWn8a4h2e5a/FgOla2YNse79HYZQdfaP32/22KCRNJu+1BtwHbGJZJvvmlLyvBmN23+HJFfzdO8w6lREhjyM6P2NQERIs1DMtS+LDsGbc6gzAfxl+TFd4XI4vl8ZHWBKw4ZFcQkwuEYmUx5uISuhqCQBvujdZInJYKyPjKs0deTClsxvG3nKgrMo3hPjPYwiAnTbcxZ/wWr8HwlzTemlObQF1+EZgmTpSjkTARpZig+VxvbHy/MgAg+fgUjN8Rhixxtn8Y2QlnMci6Mmya9sHkFSdRea4fDk2qV6odFNmSRzh1MhTltJnnb0OIvwlf/5hS2T0qJkm4svEcHGePgYMRoKuvBx1k4tL0KQjovwvrRzmicvo9bFn+Mx6mAwampgU99RlReBgDwKoRahTT0GTPDuLrg/GAWVdMGNIcZgV6qCFsuy/Etpl1FN/8C8hC9IMnyPMlxt1B8OvclmGCeoNXYdec+vKX2Y+wafIKBGqsQxjBpqEVgFiERKmvLGUUOACGDTD5p50YVA0A0nFp1hisuZ8uzvWPQte8M7b438b1M/uw4tNekKzvi8Fb/0SmmmEhspgz+HLgDPxhag1jceK/HD0zSyT8OBSjtz7QkAPpX87bO/AJbYLBLU0BZOL5rUdIB1Dp/RXYMLY+DAHApAWmfb8E0+Zvxq8HxsJeUeCyohH2GoBZbVgW47jKinuCeAB4exKLlx5EcKJ4iDGB0/DPMG7cIDQ1LXv3VQ0TOA4Zg5Y5Bw5U7joOfWornj5gAqcPukHudgTw/AzOPNVQaAX0ULWGDYyRgZcRCeoPuOIpXekQbeVqNJ/XCs6t/0aUL1GPJ+SmC0wJ+JouBiCcVV+iCkk36NHBkWOOvOI/blWuKVIC+HVHR47wiqTiaqtCU8QSVfbcm9MWXmISScoiuMUZBKpwgG9eQyoW4dUuugDU7XKIhRe/+cgit7O9nuLWQX3aNHPj0KkLuXr3cV57kqzB5Z96ZMWF8GZAGBOVNPi0gPmsk1dna068orBTqIwknx1Oc4D1F92l0o1F5bdEzUUPNn3XwXtWQ/nLsB8wed2D/CntPxpdmLrOwg/jbGEgTiqK7CRcWfwRdtkux/eD7FBuJ+n83Zi6Yu7GoQiZPR67/tRMQPe/Fb3ao7B1pRvMASDxDk6HANBtin6tSnAY5JCdmQYpAH0jg2JjK/VqjcC6xa0V2pQMcQ8u4+iOVfhikjs6N7SGU/9FOPy4qDWgDFE+k9CmzSc4lyhOKxuG1o3R1rUedF/dwcWju7B60TSMHtAbbh1d0X74DkQWyF3EckgWBZ9JbdDmk3NQtXq6RiYwAJAlyVJ755SGBC5nK9fX+zDbHoC+M4b3q/8vWraZolmvpjAzNoaBuPUpcQllBq/H9AM2WLx6MGoWtSOigmDiPAcbBj7BsnnHEaNu66qgpD70w51MAA36oK21ag1Ax8AI+gCyZUJRXV+OrhnaeZzHtY2j0VKpdr7Dk1OrMKL9MOwOVzLoyF7i+Hd7EPjkLTS6D0xIwu29s9GvqSXM67qgx7BPsOG35zBy6oWx81Zh47dDYCf+jBJkL4/juz2BUKd62YIUAgADY/1iBwdlaE7gICDm/A4ceV4d7nt8sMhVYa/nvwCL/kcQdHI4bBXvyNsLGO/YARufKq78E3B+5TbEdJqNIXUr7NxNAXN0nD4Blue/xd5Q9Y28FY9MhF/yx2sANp27oW4xDgNF9IyropIuIEtPh1TJoFkAvepoN8ML9+IT8OSGL/b+sBCT3TvBQTH+PfkM5i84hwSFtwAAiYE49RAwaNUPLVQKtlOBrD+xc5ATXCdugF/IW6D2EGy8EYsXt/2w97u5GOfeA20cLFRaASUGnsJDGKBVvxaqxQICYGYa3gEwNjNRe7WkMYFLf7gBIz46ANO5x7BnTB250fXfhGE11Kyu2FoFRPttwLGXlWBbNf+2Zr++gl1n09FqRCdYFXP33r0OwWXfw/D2OoLTV24jNPIZ7ly8jNC3JbXuUiBIEP34DvzPn8DhA0fhdyUQoS+ToWR8LxVGDv3hXvMx9h/9Gzzk2Zl4m/pO2UT670GIxY1fnwIwgcuHTaHyMF7JFvWrA3j7CoX8Bgq8i/DCZ4MmY9/Td4BhdTRo3x/j563EzmPXEJaQhucXV+FDG3ne5JsX8ES0Uk19eAZ3swCnfq6wLKZ9qk4WHm0ahWkn4+QvdVri29M/Y0Z7q4JiU+y0NJdUPDxzF1lwQj9XS5XFJzMhFhLow6aepdq6omoZxSK8Pod5A+bjfseNOL6iK6pp5FvFlJ9toTDZeHt7LUZP9kNKDRfUV2jFqUEncF1SD32cqyu9edlJN/HDwAawbjwCK3/2wxX/33Bg3efoWa8eXHoMxreBGj0rBWkPtmJ44+qwc2qPsR5bsP/ATnwzsSsa164Gm1YjsOJctPqeJzHGDdCtTRU8PXkZr8r8ZaqRGemHb0Z0Q9e+H2P250PRoXU/ePi91Jhol5rE2zgVAkCnGfo7q7Gl0KgmnGwAJIQjvphRIuvlFfgc342vdtyX74tWRNcEtbt/gb2bP0AlANCR75UWYnzxWXdXuLg4o81wT7wBELVrJNq5uMJtqo/yU3GENCTES0q2aWUnIuCXO/n5nIZjUKPCxifp22goj8MVEOP7Gbq7usDFuQ2Ge74BEIVdI9vBxdUNU32ixB8QkYXXEQkArNDovVKcCir2OqhNZhi3f2BGnbpTeSauHP070ghudgZhPoJniwuULEQsf25flW1/iqZAUni1m65mnegVJ84nR0iL4NnvB7OekTmdmpmxstsh5mfN4qOVjYkqA3gqL9BRkTQGzK9HoDnXPSnoakq6NJk1YM6Rv6lV+RJI4eUJ1jmeKxtOuprjuZK94fnP6srf13fmV3eLCJBUmSw+Xt2UqOLO00niNJJZL3h6+Si6NanJ6jUc2GnMt/QNL77MjKANnPvzM/HbJAUmXfega1Ub/m/bQ8pPB5QycldXVqrUhZsLRM+WA0V4UXNJuTSOVgDRSN3DUJN54SMLAq7cWYyrPuXKRFoDhGEnrn+krACBUZ7daACw+kg/FvDhSsO5qTUI86E8o+w55SIJoIezAQGw9lgfRinxiuaTSN/+lfO9ujYTeEH83bJo+oyyVfD8WnHcpcIn4krDN7E1QPOhZ+TeaJVIpO//TAgDN3rHFBGZUYwXtWwCJyTx2hdNaGDSiauDim/QZSbuMHsZgQZuXizqd4oRMpMZ88CLo+ysONg3mhKJhJJYP46yteVQ7zAmpkooSU1k1ONAXj7pxQ1zBrBxFRB2vbn42D2e/Pg9OswPZP4vS+HFjy0Ju+m8rvRczjh6d9YlANbsOZ2rdp/g9bA3zBRIZkbw9G4v3lA2CAgpfPY4imkq/q58pIzcN5A2AGHWl3uf5bfUzODldMhpcLVm/pEjFCLUKDf+UBfqohW3PBPVP+sZvYbbEXp2dO4znB8P780WFiBM2nDeqVdFhJfI+GLX++y8NkycQOmzfRxQTYf15t6gYqBBxu0FrAfQYXlwyQcgloViBS6TQR4O8uf7qb/ye1okAmO83WiAahxVzCCXJ3AAUbU9Z+67ytC4DAoks5IiGXBgHjubgzDrza2i426FuEPsaQQadN3P4jY5ZIV+zyZ5YtSM3z1S/pRySb3lQefcnQoAa7iv49WoTJICU5+e56aPHVm91QyuHmqZl8ekRX9OnPcNt5+NzHleAuMO9aQRDNh1v3yyoRIZ97mkAYhmPxTcGaJI+QiclJFeQ2ilU4NjjkaVeyxYysWxtATYfG2YSmWlBS6iU95DLO1VjUNOKo6ROaNJgyVFnPSbydB17fO2ruVdhjZs3Hsm99yKV1r3hJODWc20r0JsnnpIk6IZ8yaKobcu8JjnFn63fAm/mOJG85zyLT6+yMLjqXrlJvr2owkcuPxBwU6V4DeKNe2GcPcjhe6eEc4j05rTEJbsvcqfCWJNzwzh6g4OnHhZXKskXhhvTRh04s7Igh/Kff42k64WED6NU6zAJfJE30oEanDipaJFqiik4ZvpqgvW/fK28ngukqn+n9IOZnSZuIIrpnZjrbwtUDl/K9Wiy6AlPPpYUkgkki98RAuATVc/LmJgySHzMX90r0UDAxs2buLAkcVO9yiPFX1wiEtHdqGDuUK71gOhW4MdJ27lrUSBWZHH+GUfJ9qa6uXlMe66m89lVJjBNuXqx8XWrgCyZ1vpDLDhkntF3rNyEbjUwK/pamTI1h43lXae0pFC/y96c2rORjdZ9AlOc3Ohs3NrOlrmdFbH1nR2dmG3KUf5Stxxyp0knhpYhai/iHeLuttCEgN/nMAOdvIlQMHLmsO8n4tETr7M1Gu+hmHK1K9YBCYHefHL/s1YHfLG1qr3R5zl8T3XrxiVF3itXODUKzfx+Ac0RhN+H6rYOJPoN9yRAw5EFQ4+FVIZvGME6+joss6QNbz4Qn7DZMkP6DnBkVUdFzBAPOlPOsNh5iBabeTTAnXKYuiqxgTA5mvCiu+8ZaVYgSPTIv155vcISsTqogqyV/TsbkQ4LGNQUdNQWQqjYxXES5rMqLBgBt4K4P3H0ZQUutG5ZPD2gnoEanHWTfGNLQqBL/a4c5xfSQKngJDJxFdP+fBeIO89jmKyCm2HJJlxmwvqgag1iypXjzK+2NOFBmhe/CxT0wIniz7B8XY6tHDfx4hiylWXrPAf2b2eO4/FixJUtS2UO6n0/7QmUWMqf1c6jRCYEn6XQS/SKDCT8Y9v8PT+9VzyyRB2tNORi1yDJbyfQTIjgr967uSObd9yiC1o0vkLbt6xhz63VZhO5ZARtIodjOQiZt7zW16Myn8Y0vANbKFM4EpZbsz+9tRBW+6NUujZ0nBu6taTe14V1dtlfHNtJXvlDE6Vq5tTHyAs+3LDvZRCMxDJ9c9oB7DBYtFoLQ3nZhcQaM6VioYvIY3Prh7h3h3buX174WvHXl8+UHdHTQkCVzYExp8YRDPU56IiR8hSktdHhuX3EVkyI8MTla4a5KTy6sx+/CZIw3VRQp79bVi+/U2WHMlwZdsicpFGcGtbfRp23k4F60thNCpwGQ+5vltl6jvO5ZVENRtPMQhJ/lzc0ojmg04WNJyqYVsof2SM/NGFOgbv84hYhElSiObeNiAcPeQipkjSeU6wAVF7tnwESwvn+YP7+dOa0bRDZXZdsoue+w/w10fKlj4Ck0PP86jfAybljeCZDF4mtwcpG7WzQr6lozKBU6vcXDJ4f0kD6tSYIhL2ZN49eJrPShjkhOQQnlj3JT8ZP4VfrjnA6wpCnE8WQ1Y4EbDk2IsF55tpdxfTAaDdxF/z/9FR2gNu+l8tmpjZsUHDGjTQt2ZDJyc2sNKnQU0HOjk1ZrMO47hf3RG4XAWOZOZDrnI2ouXI0xr6p005JJ7iwCqgfl4fEfjm9ER2m+1f9JI+1Z9zesymf5EZNEfiqYGsAv18+5vwhqcnduPsYgqX3JrP+gb1OedG0XlITQqc8IbnpzegbtWe3Bpa1BxbfdLCDnJaKyMC5hx6WixvatgW/gLSAubSXseec24pmWcLUdztCgK6dJzyM4Pz1CiTr35byFYGYO3pV6koJfE+fVnZyI1exXlOEk/T3RQEqvB/h3MfosB43+HypSlA+/GevBsrN/xKnl3kGve6NM+x2xi2X85j14IYmZK/vlGp3DzieOh9Yxr3OKCyg0dthFfc01GPgAHbb8xfhsriL3BOk0q07r2agSm5hWfw4ebJnO0VxjSSqb9/zm6f/85USnh9VmdOEgmkWpS3wJFMvTGPDau05ooH4lGw9AjR+9hRF3xvhtyhJH31C6e8P4W+Rf5bQikj9w1l71UPytdpQ5IUGL2vI3XxHmf8ISEp5atfpvD9Kb4sunqR/KmXOW1Gn2R8SW1OMwKXxae7PqS5bl1OPRNX2OZSCjJeXOH2WX1YTz/HRlVtBM8UCr8ojW2hHEn15zQ7AzZTKrYx9OxgQIM6XdmnQ11W1tFnleoWNDUA9as1Yq85BxlW4Cek8PJEa+o1X1u8HSwjmD/0qkmjStVYb+IlhQQJQ71nspdTtZyZnA5Nq1VlFVtnjlpzifcPTaGzRb7B19Hjfs7nVCw3l+TzHGNZiZ33vtDIc1dKwkkONAXRciG/m/gB3acs5NJZY9inbVsOWnGJsUXWM5kXJrTksFOJpPCKuzo347xCxj01+AsEjkIir8xpTMvOG1T7v5+qIIvhqU+a0LzhEM5fOI0jB31O7ydFC2hG6DYO7ePBG+ou4UuJLOYUP2lizoZD5nPhtJEc9Lk3i66ejK8OurNG7Y/oE6VCiyu7wAlM8l/IZnpgnfGevHrzFm/dUu26+cc1XjpznIc8d3LzmpVctnAOp43tzw4O5grG95yl1JjfCsfHlMq2UJ5k8N7SRqzUbCVDlDROmSQpL+xCmhrH50+fMCI6RXldM+5zaUM92s8LkIeiZMUy6H6sOFcesoidHDH3d/HbJElpWgKjn0XwRYI8pKBY1CpXYILfKNpYuPOXuBK/udRI/D9lTYANPYKYSSmTngXz/tMEJYNIQYTYIxxYuzv3RwtkRhCXOlhxsDpGczF/hcBR7snc1rc2nRdeo+YsPVImRQQzODKlhIEojcG7vqdPuJIGXJ5IkxgRHFxgJaGMtJBN7G3fjssDVJyJl1XgZFFHOdK6oBhp/rLiuItK7EClsS2UM7KoQxxoVYtTLpWhI5Fk3AF2NTTjoNNJJNP4YP1Qjv05UpwrB4ExRyZwgk9RQqQG6pSbFcofXM3ZYtk9hXhATZPJkG8dCdjmByurRAaDlzdmZdctjJCSlD7l2qagxcdKBkpVSf2dk21BVK9Fe3t72ju8z+/KyQgvJAdyzf9ac9hPESUK+X8FWewpftrGjYsvlnAqsBDHYyMay59RbVsaQ0epwOmQpHh3g5isZ77Yuu82kspxQ6COiSNGzhwNJ9FujOwYT3R5bxyeT/8Djze2g1HUMXw29hw+9N6G/jaqnkegaWSI3OeOThtb4tjv36CNqruGxWSGYP2AAfjJcih6GUciufE0rJrVGVZKflZ2sj+WT/BDb89V6Fja8nJRuVwBscfGoN1XdXH4+kq0VXnjpZoIL7GnSx1MCuqHEy98MUDV/6iXfhOzHHvgnkcILk6yhz4yEeTREq13u+Hqkx/RSX7QtHrIYuF/+ASCc/cM61VDa/dhaKfiqSFq8y4GtwMy4NSpHkpT3YrGu+hbuCtthnb2JW3LSkfYCW9cjJbmvDaAXY/RGOAg+pxY8f5xqGlb+MuQxfP8rJZ0GOnNyDINvwLTYl8wPqO4dUoKr3t8xOW/J5a8/FSZksuVBK9lz0b9uOVROd/v5LMcbg4adt9PxSiUkpExJSa2YEyaLJXxSWV6IFoqECrN4P5+ZEh+FoqXunXQ2N5U5XOkyh1ZDM4um4hNxl/j6FKXCjUCC/G/YuGnx9HQYy0mtjBVerCAxhASce/4acS2GoIP6pc0cmvRojr/EoH7J/MOyQkyVLUwKV8R+KuRpUGSXQlVDCvUr9LyH0MrcFq0aKmwaIdnLVq0VFj+D7AQ8JYQGv8CAAAAAElFTkSuQmCC;" vertex="1" parent="1">
                    <mxGeometry x="199" y="840" width="312" height="43" as="geometry"/>
                </mxCell>
                <mxCell id="26" style="edgeStyle=none;html=1;entryX=0.5;entryY=0;entryDx=0;entryDy=0;" edge="1" parent="1" source="23" target="25">
                    <mxGeometry relative="1" as="geometry"/>
                </mxCell>
                <mxCell id="23" value="A esta política se le agrega el objetivo de máximizar la entropía&amp;nbsp;" style="text;html=1;align=center;verticalAlign=middle;whiteSpace=wrap;rounded=0;" vertex="1" parent="1">
                    <mxGeometry x="190" y="940" width="330" height="30" as="geometry"/>
                </mxCell>
                <mxCell id="25" value="" style="shape=image;verticalLabelPosition=bottom;labelBackgroundColor=default;verticalAlign=top;aspect=fixed;imageAspect=0;image=data:image/png,iVBORw0KGgoAAAANSUhEUgAAAkYAAABHCAYAAADiHojgAAAAAXNSR0IArs4c6QAAAARnQU1BAACxjwv8YQUAAAAJcEhZcwAAEnQAABJ0Ad5mH3gAACeNSURBVHhe7d17XIx5/z/w11SqjSWSTc5tRKSi24psbsnZbiFpxW0X5XzbHFq372aduTfrtKzzadlNWOvGLZZFWS2x2V0RG5YUqeggnef9++OeuX5dn6aapqkl7+fjMY+Heb/fM9c1+cw1n/lcn/lcCiIiMMYYY4wxGIgBxhhjjLHXFXeMGGOMMcZUuGPEGGOMMabCHSPGGGOMMRXuGDHGGGOMqXDHiDHGGGNMhTtGjDHGGGMq3DFijDHGGFPhjhFjjDHGmAp3jBhjjDHGVLhjxBhjjDGmwh0jxhhjjDEV7hgxxhhjjKlwx4gxxhhjTIU7RuylMWPGDCgUihq/9enTR9wVxhhjrykFEZEYZOyvcPbsWfTt2xdKpRIAYGJiggMHDsDa2losLZdSqURhYSHy8/ORlZWF9PR0JCUlIT4+HpcuXcKdO3fEh+C3336Dg4ODGGaMMfaa4Y4Re6l8+umnWLJkiXTfw8MDp06dgoGB/gY3U1NTcfjwYWzatAmxsbEAgIkTJ2LLli1iKWOMsdcMd4zYS6W4uBju7u746aefpNiyZcswb948WZ0+EBEOHjyIGTNmIDMzE4mJibCwsBDLGGOMvUa4Y8ReOg8ePICTkxOePXsGADAyMkJkZCRcXV3FUr1ITk7GwIED8cEHHyA4OFhMM8YYe43o7/yEjgoLC8UQe821bNkS27Ztk+4XFRXBz88PGRkZsjp9sba2RkREBA4fPozi4mIxzV4DL168gI+Pj3QrOWJZVenp6QgPDxfDtc7p06fxxx9/iGGmg5poM9WxjTNnzuDy5ctiWK+0bWfa1I0ZM0Z6zx89elSK/+Udo7Zt2+Lp06dimL3mhg0bhkmTJkn379+/j4kTJ8pq9Klp06aYNm0aDh8+LKYA1YTuzMzMSt/UE8nZy62wsBAnTpyAv78//P390bp1a7FEJ0+ePMH7779fbaOdLxM3NzdMmzYN169fF1OsEmqizVTXNk6fPo2oqCgxrFfatjNt6nx9feHv7w+lUonbt2///wT9Bfbs2UNPnjwhIiJ7e3vKz8+n3Nxc2rJlCxUVFYnl7DX14sUL6tSpEwGQbps2bRLLasTGjRvJzs6OFAoF2drakpOTE7Vv354AULt27ahz587UuHFjaT8tLCzI3t6eBg8eLD4VewllZGSQubm5GK6S/Px86tWrFx07dkxM1Vp37twhZ2dnSk1NFVO1Sl5eHn311Vfk7e1N7dq1I1NTU/L29hbLStmwYQM5OjqKYUlNtJnq3MYnn3xCoaGhYljvtG1n2taJ+/2XjBjFxcWhe/fuOHDgABwcHHD16lV069YNV65cEUvZa+yNN95AWFgY3njjDSn28ccfl/sNoLpMnjwZ8fHxCAoKQmhoKGJjY7F8+XJMnjwZt27dwq+//orU1FRkZWVh69ateOuttzBhwgRkZmaKT8VeE8uWLUOXLl0wePBgMVVr2djYYOrUqZgxY4aYqjXCwsLQo0cP3L17FwMGDICbmxvy8vJw+PDhcs9+/P7775g6dSreffddMSWpiTZTE9uobtq2M23rSpF1m2pQVlYWzZo1i+rXr08+Pj706NEjsYQxIiLavHmzbNSoY8eO9OLFC7GsRnz++efSqNWGDRto5cqVYgkRET158oRsbW3Jzc1NTLGXkL5HjO7fv0/169enhw8fiqlaLz8/n5o1a0Znz54VUzp78uSJXp9PVwsXLiQrKytKTk6WYs+fPycAZGhoWO4Zj//7v/8jABQdHS2miGqozVT3NsSRl+qkbTvTpk7c779kxOjy5cvw9/dHWloaPDw8YGdnBz8/P+zfv18sZQwBAQEYMWKEdD8uLg4zZ86U1dQUhUIh/ZuIYGhoKMunpaWhsLAQlpaWWLRokSzHXh/Lly/HgAED0KxZMzFV6xkbG2PGjBlYvHixmNJZdHQ01q1bJ4Zr1DfffIOVK1ciPDwcTZs2leLqH4W0bt261PGgpPDwcNjY2KB79+5iCqihNlMT26gp2rYzbetK+ks6Rhs2bMD48eOxa9cuJCYmYuHChVi1ahV27tyJFy9eiOWMYevWrWjVqpV0f8uWLThw4ICs5mUQEhKCkydPAgAGDRpU7rA5q51yc3Px7bffVuuPBV52Pj4+OHv2rMZV5nVBRPirV5aJiIjA6dOn0atXL1n87t27AIB27drJ4iX9+uuvuH37Nvz8/MQUUENtpia2UdO0bWfa1qn9JR2j3bt347333gNUa9akp6ejS5cuiIiIgJmZmVj+UiksLERiYmKN/az73r17uHHjhhiuMTX9estibm6Ob7/9FkZGRlJs4sSJ+PPPP2V1f7WYmBjpb9WgQQMsXbpULGG13MmTJ5GdnV3myEBJDx8+xLlz5xAVFYX79+8DqsvT1EQnICsrC5cuXcKZM2dw7do1ad0wfWjTpg2sra1fyi8vutqzZ4/GX3Gpj8/Ozs5iSqL+WbyXl5eYAirZZnRVE9soT0FBAa5cuYIzZ87g6tWryMvLw9OnT/HgwQOxVGvatjNt69Sq1DGKjo7Ghx9+iH79+sHT07PMW//+/XHw4EHx4QCAr7/+Go0bNxbDL52kpCQEBgZi3rx5OHToEMaOHYv3338fiYmJYikmTJgAe3t7WFpaYvTo0Xj27Bn++c9/YsSIEejbt2+pXmt8fDxGjBgBPz8/jBw5Ej4+Pjhz5gwmTJiAY8eOITAwEFu3bpU9Ri04OBgODg6wsrKCi4sLAGDz5s2YPn06AgMD0bVrVyxatAhEBKVSifXr1yMoKAiTJ09G7969ERoaqvEgrO3rzcrKwpAhQ+Dj4wNfX18MGzYMQ4YMkfI7d+6Et7c3fH19MXz4cHzwwQeyx1eGq6srFi5cKN3PzMyEn58fioqKZHV/le3bt/MPCGqZ8PBwBAQEoGfPnjh79iwAYNOmTRg/fjw++eQTzJ49G3l5ebLHREZGomPHjqhXr54sXtLPP/8MBwcHfPjhhzh27BgOHDiAUaNGwcrKCo6Ojnj8+LH4EL1JTU3FiBEjYGFhgSVLlmDPnj2YOXMmGjdujI4dO2LPnj3iQ3Ti5uaGyMhIMfzSuHjxIkaNGoXAwEDMnDkTw4YNQ3R0tFhWoV9++QUA4O7uLqYk6ms+du3aVUwBWrYZVPEzV9tt6Ft+fj5mz54NOzs7bNq0CadOncKaNWtga2uLli1bVvnLo7btTNs6oAqTr/fv309169alXr160eDBg6lly5bUv39/GjJkCHl4eJCNjQ0NGTKEhgwZQsOGDaMzZ86IT1Flubm5lJCQoPOtop/wqSmVSnJ0dKSwsDBZPDg4mN5880367bffZPGcnBy6cuUKmZqa0qhRo2jevHmUkpJCS5YsIQC0dOlSqfbatWtkampKO3bskGJhYWEEgI4fP05ERF988QWdP39eypeUm5tLN2/epMaNG5OTkxOFhobSuXPnpPylS5cIAK1du5ZCQkLo8uXLUu7EiRMEgL7//nspRjq83uzsbDp79iy99dZbBIAOHTok5Z48eUKWlpZkY2ND4eHhlJiYKHtsZRUXF1OfPn1kk7E/+eQTsazahIaGSpOvv/zySxo/fjzt3r2bfH19qUuXLuTj41Pq78lefpomXz979owmT55MREQLFiwgW1tbWrhwIf34449ERDRt2jQCQCdOnJA9rnfv3vSPf/xDFivp+vXrZGRkRMuXLxdT0gTd6pocS0QUEhIivXfUr4WIKCIiQor/+9//lj1GF4sXLyYLCwsxrJPvv/+evLy8xLBOlEolLV++nOzt7enWrVtS/Pr161SnTh3Z8TMpKYkOHjwo3dfEwcGBjIyMKDs7W0wREVFsbCwBoMDAQDElqajNkB4+c7XZRlWJk5iJiPz8/Khx48al/j5JSUnUpEkTmjBhgixeWdq2s/LqxP3WqWN048YNcnd3p3v37kmxQYMGSf/+8ccfNb7p9W3btm1ka2ur802bdSeIiOLj4wkAmZmZUXFxsRR/9uwZASBfX19ZvVqbNm2obdu20hvr/v379K9//Ut20PPw8KC6detSQUGBFFMqlWRhYUFdunSRYhXp0aMHWVpa0po1a2TxoqIiMjExoSZNmtDOnTtluaysLFIoFDRkyBBZXNfXGx0dTcbGxjR27FgplpCQQO7u7pSZmSmrrYrk5GSytLSUDuIKhYJ++OEHsaxaiB2jLl260HvvvUcNGzak8ePHU2BgYKU6RkqlUgy9El7V/S6Lpo7RV199RRcvXiQiounTpxMAWr9+vZR/5513yM7OrtQBv0OHDjRnzhxZrKRly5YRyliTKzk5mQBI67xVhylTpkjvnStXrshyPXv2JABkbGxMeXl5slxlbdy4kQBQVlaWmKo0fXaMJk2aRA0aNKA//vhDTNHw4cPJzs5Oat8rV66kmJgYsYyIiG7fvk1ff/01KRQKat68OYWFhWm8+fn5EQA6fPiw+BSSitqMPj5zK9qGPogdjOLiYjI1NaVWrVppbE+BgYE0ZcoUMVwp2raz8urE/dapYzRv3jzZz+tv3rxJ/v7+0v2lS5fSvn37pPuvuqKiIho5cqTGkQkrKyv629/+JoaJiMjW1pZMTU0pPz9fTEkaNGhArVu3FsPk5OREhoaGVFhYKKY0cnNzIwB09+5dMUVt27YlABo7J5aWlqX2X9fXS6rOgvqgn5ubS8OHD6+Wg/zx48dJoVBIB3grKytKSUkRy/RO7Bip30yFhYUUEhJCBgYGWneMnjx5Uu0Hquoyd+5crUdcXwWaOkYTJkyQvhi4uLhQs2bNZD/HLi4u1thBbNy4MS1ZskQMS9avX08AyMjIiHx8fGjLli0UGxsrfTkSO1r6lpGRQV988QWFh4eLKRo7dmyZnabKUo98lxyV0ZW+OkanTp0iALR48WIxRUQkjeo/ePCAiKjML89z586VHX/KujVp0oQMDQ3JwMCAnj59Kj6NpKI2o4/P3Iq2ocm9e/do9erVsuUJyiN2MJRKpbTwbdu2bWnevHl04sQJ6bXk5+eX+/moDW3bWXl14n7r1DESLVy4kLZv3y7d9/LyosjISFlNbfL777/TN998Q6tXryZzc3Nq3769WEKk6hjZ2tqKYRkXFxdq1KiRGKa3335bY4epLG5ubmRiYqLxQN2+fXtq2rSpGCZSdXScnZ3FsIy2r1fNz8+PTExMyNvbm2JjY8W03nz88ceyg9Dq1avFEr0rq2Ok1qVLF606RsnJyeTr61vtH4LVJTMzk0aNGkWPHz8WU68kTR0jdScoMzOTDA0NZR9EZSkuLiaFQkHr1q0TU5KkpCTZiKf69sYbb9DEiRPp/v374kOIVMfZstbN0tWDBw/o6NGjtHLlSpo9ezZ16NBB2p8LFy6I5USV2I+TJ08SALp27ZqYKqWwsJB8fHxowIABGm/Ozs7UpEmTUnH1beDAgWWuD6RWVFRErVq1IgMDgzLXzdu5cycBoFOnTtGxY8do165dYgmRan/z8vKkjmRMTAzl5eWVuqWkpBAA6tq1q/gUEm3ajKiyn7m6bIOIqF+/fgSARo8eLaY0EjsYRETz588v1dahWo9u7969stqS9N3OyqsT97tKk6/V9u/fj969e0v3Y2Nja8U6CSU9e/YMs2bNQvv27bFv3z60bt0a/v7+aNCggVgqY2FhIYZkZs6ciadPn+LChQtSLD4+Hnfu3MGcOXNktRWpU6eObJ2dkkxMTMSQRNPka11fL1Q/rbeyskJsbCzatGkjpvVmxYoV6NKlCwCgV69emDJlilhS4/r27StbqRuqi+CKAgMDERQUVOMTIfWlfv36mDFjBiZMmCCmag31mjRRUVEoLi6WHePKolAoQEQa/8/VrK2t8fPPP8PHx0f2fs3NzcXWrVvh6uqKhw8fyh6jVCqxdu1aGBsby+K6yMnJQUhICFq0aIGWLVti7dq1UCgU6N+/P+zs7MRymcrsh/oC4dq0cSMjI8yaNQuzZ8/WePPy8oKtrW2peMlbx44dxaeVUf/y729/+xusrKzENFDiOJmQkIDt27dj9OjRYgmg2t86deogIiIC7dq1g4uLC0xMTErd1Mf1nj17ik8h0abNiCr7mavLNqA6rpqYmKBHjx5iSmuLFi3Ctm3bYG1tLYvHxcXB398fn332mSyOampn2tYB//tQrJLLly9TixYtpPtKpZKMjIzozp07srrq8PDhQ/r+++91vl26dEl8So3+/PNPatGiBbVt27bU5OHWrVuXOYJia2tL3bt3F8MyT548IU9PT3JxcaFVq1bRmjVryMHBgVatWiWWlsvNzY3q1asnholUI0ZljT5ZWVmRk5OTLKbr61U7ffo0jR49mt588016//33NY5i6UNOTg517dqVbG1tKS0tTUxXi4pGjMSVb1NTU0t9Wzx58iQNHz5cFntVDRs2jE6fPi2GXzmaRozUZs2aRQA0zknRpF69erRgwQIxrFFqaiodP36cPvvsM3J1dZVOz0yaNElWp57Aq+nbbmWkp6dTu3btCAC99dZbdOrUKVl+woQJ0jd6TSNGldmPvXv3EgC9jIp+r4dTaepTmEFBQWJKoj7d0r59+wpHuy9cuEAA6NNPPxVTEnXbKWvkSa0ybUbXz9zKbKOkkvNfKyKOvJRUXFxMsbGxtH37dhozZoxs1FQcwauOdlZenbjfVR4xWrt2Lfr06SPdz8jIQFFRkbQmR3WKiYnBrl27dL6p15aoyMcff4zExERs3rwZzZs3l+Xy8/Olf8fExCAuLk6Wr8jevXuxYsUKREVFwdXVFb169UJMTAyCgoLE0hpTldf74MED7NixA7t378a2bdtw5MgR/Pvf/5bV6INSqYS/vz/u3r2LY8eOVTgyV1PElW9Xr14Nc3NzWWzFihXw9fWVxV5Vvr6+Vf657cvu3LlzaNq0KWxtbcWURi1btpRWQ9Zk5cqV0rIVjRs3xqBBg7BgwQJcvHgRe/fuBQBp2YewsDB8+umnCAkJgUKhQHh4OEJCQlBQUCB7Tm2tXr1auor44sWL4enpKcuLSw+o6bIfmZmZMDU11e4beg1Qvzfbtm0rpiQGBv/7SBw6dCicnJzEtMx3330HqN4DZYmJiQEAODo6iimZitpMSbp+5lZmGyXVqVNHDGmtsLAQjRs3xvXr12FgYAAnJyd89NFH2LNnDxISEqTlC65evQpUczvTtg5VXccoOTkZ4eHh6Nu3rxTLyckBVAeT6ubl5YXDhw/rfAsNDRWfUqPo6GgoFIpSw6Hp6el49OiRdP/OnTtISkqS1VQkOTkZUVFRMDU1haurK7p06VLuaa+aoOvrzcnJwbRp07B+/XoYGhpi5MiRmDZtGubPn48ff/xRqtOH4OBgHDt2DN99912Fw//6RETS6Q8DA4Myh6aVSiWWLFmCdevWwd7eXopnZWXh559/1ngBxxcvXuCzzz5Dv379MGDAAPTs2RNDhw7FuHHjxFKdXLp0CV5eXnB2dkbnzp3x7rvvYurUqYiPjxdLtTZo0CD8/PPPeP78uZjSmxMnTmD+/PkICgrCpUuXxHS1ysjIQGxsrFan0dTs7OzK/ZumpaXh0KFDpdYzAwBvb28YGBhIp0U8PT0xYcIE5OTkYMCAAQgICEBAQECpUwzFxcX44osvsHr1allclJCQIP27RYsWshxU7321kqfYtd2PkhISEmSr1f/V1B2d8harVZ/C7NChg5iSUSqV2L9/Pzp06FDuKbzffvsNACrsVFfUZtSq8pmr7Tb0qaCgAOnp6VizZo2YQv369aWOeWXbe0natjNt61DVjtHGjRuhVCrRv39/KdakSRMYGBjgzJkzstpXWY8ePUBEUq9W7euvv8aYMWOQmpqK4uJiPHz4UHoDKJVKZGVlVdiL79+/P4KCgqQPwPHjx2P69OkICQnB+fPny/zgFWVkZCAvL082ogPVwS0zMxPZ2dmlDghFRUV4/vw50tPTZT1yXV5vfHw8PDw80KxZMzRq1Eh6TGhoKOrWrQs/Pz/ExsaWeDbdbd26FaGhodi8eXOlPrD0ITExUbpOkrW1tfTtWy0lJQVfffUVOnXqhOfPnyMoKAgODg5SPioqCo0aNdK4wvv48ePx+++/47///S8iIiIQFRUFKysr3Lp1SyzVyYgRI3DkyBEsWbIEsbGxWLZsGQ4ePAhnZ2dcvnxZLNdKvXr10KhRI0RFRYkpxMXFITg4WFqotDwRERFiCEVFRRg5ciQiIyOxYMECzJ8/H76+vrh48aJYWm2ioqKgVCrx97//XUyVqWfPnhUu9FlQUABvb2/cvHlTihERVq9eDSMjI+lq4BYWFmjRogViY2MxYMAAtGrVqtQoLlT7OWvWLAQFBeHo0aNiWjJ8+HCpY79q1SpkZ2cDqpHgOXPmSIvEQjUicu3aNRQWFmq9HyXFxMSUunzGX8nV1RUeHh44deqUmMKzZ88wd+5cEBHq16+PJ0+eAKpjXlZWlliOyMhIJCUllTtalJaWhoyMDNStW1capSgoKMCUKVNKfT5q02ZQxc9cbbdRHXbs2IHly5fLPoPu37+PgwcPom/fvlKntTrbmbZ1wP/ejDqztbWlYcOGiWHq1q0bvf3222L4lZWWlkZeXl7UvHlzWrt2LYWFhdGMGTPo4sWLdPfuXXrrrbeoZ8+eFBwcTEREEydOpM6dO5O5uTmZm5tThw4dqFevXhQfHy8+NSUlJZGTkxPZ2NhQp06dqEOHDtSmTRsyNjYmAGRtbS1blFEUHBxMLi4uZG5uTg0bNiR7e3vpXPykSZPI0dFRynXu3Fla4MvPz486depEDRs2lPZRvZ5EZV5vfHw8OTo6Ss9Tt25d+uWXX6T9++CDD8jMzIwaNmxIlpaW5OrqSidPnpTylfXDDz+QkZERzZs3T0xVqy+//JKaNm1KUC0N0Lp1a7K2tiaofpLbqlUrqlu3rnTO3NTUlFq3bk0NGzaUnSfftGkTubi4yJ5bzcbGhlq1akVfffWV9PPt5ORkioiIEEvpxo0btGjRIjFcLm9vb7KysqKEhAQppl7T5sMPP5TVEhHl5eXRuHHjxHApLi4utHnzZlns0qVLZGVlRR988AFNnjyZmjZtSuPGjdO4lkl+fr60kGJJU6dOpZEjR8piw4cP1/oXMpVR1hyjlStXkomJSZm/FNPk2rVrBEC25kxJn3zyCdnZ2dGiRYvIzs6OWrZsST179qRmzZpR9+7dS73f1fMtfv31V1m8pLS0NHJ2diYXF5dy57yQas0bd3d3MjY2JnNzc3rnnXeoXbt2tHLlSlIqlTRnzhxq3rw5GRgYkIGBgfR+1WY/1IqKisjMzEzjkgC60MccI1LN6Xr//ffpo48+okOHDtHu3bspKCiIZs+eTX/++SeRakHdzp0708aNG2nu3LniUxARUUBAACkUCrp586aYksTFxUnHgx07dlBMTAx5eXnR4MGDS/1EvaI2o1aVz1xtt1EV4lyd3NxcMjQ0pGnTppGfnx+Zm5tT165dycnJiZo1a0Zz5swpNYepOtpZRXXiflepY3T79u1SL4qI6NGjRzWypkxNS0tLo59++okuXbpEubm5Ujw/P7/U5DFtXL16laytrSkqKkpMUXFxMUVFRZGzszPZ2NiI6Rqh79dbVTdu3KAGDRrQiBEjqm1Cd3VbunSpbGG2kkquSAyATExMaOjQoXTjxg2xlBYsWKDTwmhJSUn09ddfU0hICH344YfUsWNHAlBqkU8iorNnz5K9vb0YLmXgwIG0bNkyWaxfv36yDuHz589p2LBh9M4775RaE2XTpk20ceNGWSwxMZGMjIxKTYB1c3OjgQMHymL6UFbHKCsrS+MXmoo4OzuXOQk1JydH+mBUKpWUnJxMCQkJGieFEhGtXr2aGjVqpFWbz87OLvV/UZa8vDx68OABPXz4UKvnrsx+nDx5kho1aqSxI6wLfXWM1NLS0igyMpJiY2M1rhV348YN+v3338UwkerYbG9vX+rLgCgvL4+aNWtGUC1Ca2dnR1u3btW4PaqgzahV9TNXm21UhdjBICLZ+k3Pnz+nO3fuUGJiYpntqDraWUV14n5XqWPEqmbo0KEUEBAghmXOnz9PACr8xUFtl5KSQm3atKFu3brRixcvxPQrY+3atdS7d28xLDl+/DhNnTqV7O3tpV8oWVhYSAeXCxcu0K5du8jR0ZHGjx9P3377rVYHkJSUFBoxYgTVqVOHhg8fTrt376YrV65QUFBQqY5RQkIC7dq1i3x9falnz560a9cuSk9Plz1fSb169aItW7ZI93NycmjixImyGlJ1AhYuXEjW1ta0du1a+uGHHygkJITefvvtUv+ny5YtI2tra1ksNzeXzMzMKCQkRIrl5eXRoUOHaNeuXaVu6lWrtVFWx0hX27Zto7Zt22r1f1MRb29v2UKDJf/Woujo6HJXWK6KyuzH0KFDyxxt0cW5c+c0jmq+7AoLCykuLo5ycnLEVCn6bDNlqe5tiB0MXVRHO6uoTtzvKs0xYlVjaWmJp0+fimEZAwMDGBsby+btvG7y8vLg5eUFpVKJ//znP6XWCdIXpVJZrZOIAcDKygrp6eliGFBdfPjtt9/Gl19+ibi4OKSlpWHBggVIT0/HtWvXANUkTjs7O8TFxWHcuHHo1KlTmWtXlTRr1iwcPHgQ/v7+OHjwIMaOHYuuXbtqnOhvZWUFJycn3Lx5Ez4+PnByctI4J0otNTVVNqkxOztb47l8hUKBkJAQ7NixA9988w1GjhwpXW1b/D/98ccfS12U8/jx4yAi+Pv7A6oLHQ8ZMgRHjx7FunXrEB0djbCwMBw5cgRXrlwptRZQTRo3bhzMzMxw+vRpMVVpt2/flub+REZGyn4AIfruu+/g4eEhhvVC2/24d+8eYmJi8K9//UtM6czd3R3bt28Xwy89IyMj2Nvbl/v+UdNnmylLTWyjqvTdzrStk5F1m1iNun37NtnY2NCaNWtk1yRTu3XrFtnZ2dHnn38upl4bSqWSfH19qX79+mUObevLl19+Sd99950Y1qvExEQyMzMrNceAiMjc3Jx69OghGz05ffo0mZqayk6znD17ljp16iTdF/3nP/8hS0tL2cUwx40bRwDoH//4h/RtMTs7m7p160YAyN3dvcQz/G90xtTUtMLLueTn55OZmZnGS9HoqqCggMzMzGQXl8zMzCx1+uLChQvSdY/GjBlDpDpVef36dalGW/oeMSIiunjxItnb25d5ikxbq1atovfee482btxIixcv1nisINXcIW1Po+lCm/1QKpU0aNAg2r17t5hiWtBXmylPdW5DHHnRhT7bmbZ14n5zx+gvlpqaSosXL6bBgwfT9OnTadmyZRQcHEyjR4+mMWPGlLvM++tg/vz5ZGhoWOoK5vr26NEjsrOz03j+Xt86dOigcV5ZkyZNaODAgdShQwfq06cP9erVixwdHUtNVl+wYAFNmzZNFivp6NGjZGlpKf0YgFQLifr6+pKZmRlZWVmRh4cHubu7U3R0NPXt25fq1KlDxsbGUmeqos6X2rlz58qcTK4r9cJ5ISEhFBoaShs2bKDhw4drnIROqutGqf8eEydOfGk6RkREGzZs0Mtk8efPn1f4Qfb5559r/BDRp4r2Y+XKlTR16lQxzCpBX22mPNW1DbGDoSt9tTNt68T95o7RS6S4uJgePXqk1fno18Hu3bsJAG3YsEFM6dWDBw+oXbt29M9//lNMVYv169fT9OnTxbA0UlRUVEQpKSmUkZEhlhARkaenp/Trik8//bTMCYWaVrktLi6m1NTUCtvY0qVLpcndYWFhdPXqVbGEiIhmzpwpu+K8PixZskSaX1RQUFDhqNVHH31ER44cIVKt3KzLCGtGRgYZGhqSm5sbubm56XU17xUrVpQ7T6K2OH/+PAUGBpZa/Z1VXk20merYRkhISKWvx1ZZ2rYzbeo8PT3Jzc2NmjdvLusYKUjThbIY+4udP38e/fr1w5QpUypctE5XRIS9e/di7ty5ePz4Ma5du1bhCrX6UFhYCBcXF5w8ebLMazaVZ+nSpcjMzISZmRl69+6tcS2nq1evIjExEV5eXmJKK2fOnMHGjRvRq1cvmJmZISAgQCxBSkoK+vTpg8uXL6Nu3bpiWmeenp5o0qQJ9u3bJ6ZKyc7ORufOnXHz5k2Ymppi586d2L9/v8Z1kcpTXFwsW+PF1tZWr6upZ2RklFoBvbZ5HV5jTaqJv6e+t5GTkwMjIyONcxf1Rdt91qYuJiYGSqUSUK0Mrl6jjjtGDFBNcN63bx/+/PNPMQWoJs6OHj26RlaZ/uOPP9C9e3f06NEDR44ckZbp15fHjx8jPDwcO3fulCY1Ozs745dffhFLq01UVBS2bNmCPXv2aDV5WpSZmYk333xT49/mxYsXCA4Oxtq1azXmtZWbmwuFQgFTU1MxBQAYO3YsPvroI40dM10VFhbC3Nwc69atw/jx48W0RgUFBbKVcV+8eKHVZFfGGNOEO0YMaWlpGDRoEMzMzGBhYYFffvkFLi4uSE5OBhGhWbNmMDY2xrx589CpUyfx4Xr19OlTdO/eHSkpKdi8eTPefPNNsaRCRITCwkLk5eUhNzcXaWlpSE5Oxr1793D9+nXcvXtXfAjWrVuH6dOni+FqFRUVhcjISMyfP19MVUl6ejoUCkW1/pJx6dKlsLGxgZ+fn5iqktzcXEydOhWrVq1Cw4YNxTRjjFU77hgxBAQEYPbs2WjXrh1++uknREdHY/bs2fjiiy/g6uoKV1dX8SHVoqCgAJ6enoiMjBRT1crY2BjJycl6PXWirbt378LGxkYMv/Ru3bpVI6OHjDFW07hjxFBcXCxdeXry5MkICAiAs7MzRo0ahRUrVqB169biQ6rF7t278dlnn4nhate3b19s3bpVDDPGGHsNcceISfLz8+Hg4ID4+HgYGBige/fu2LFjh+zq8IwxxlhtpvvMTFbr7Nu3Dw4ODtKE3UePHiExMVEsY4wxxmot7hgxQHU5jM8//xz9+vWTYmZmZvjvf/8rq2OMMcZqM+4YMQDAhQsXkJiYCG9vbyn27rvvytZ2YYwxxmo7nmPEANVP3J8+fSr7ZVZ+fj4KCwtRr149WS1jjDFWW3HHiDHGGGNMhU+lMcYYY4ypcMeI1RpJSUno1q0bsrKyxBRjjDGmFe4YsVrjwIEDSEhI4DlRjDHGdMYdI1ZrnDt3Du7u7lW6cCpjjLHXG0++Zq+0lJQUbNiwAUSE9evXw9HREe+++y7c3NzQv39/sZwxxhgrF3eM2CutuLgYDx8+xG+//Yb33nsPJ0+ehJ2dHSwsLPiUGmOMsUrjcw7slWZoaIhWrVrhzp07aNSoETw9PdGqVSvuFDHGGNMJd4xYraCeX6RQKMQUY4wxpjXuGLFXnlKpRGRkJHr37i2mGGOMsUrhjhF75V2/fh3Pnj2TOkaJiYmIiIgQyxhjjLEKcceIvfJu374NExMTdOrUCUSE4OBgdO3aVSxjjDHGKsS/SmOvvNTUVHh4eGDSpEm4f/8+/Pz84OTkJJYxxhhjFeKOEas1Hj9+DCsrKzHMGGOMaY07RowxxhhjKjzHiDHGGGNM5f8ByH6lit5L7M8AAAAASUVORK5CYII=;" vertex="1" parent="1">
                    <mxGeometry x="64" y="1029" width="582" height="71" as="geometry"/>
                </mxCell>
                <mxCell id="30" style="edgeStyle=none;html=1;entryX=0;entryY=0.5;entryDx=0;entryDy=0;" edge="1" parent="1" source="28" target="29">
                    <mxGeometry relative="1" as="geometry"/>
                </mxCell>
                <mxCell id="28" value="&lt;img alt=&quot;&quot; src=&quot;data:image/png;base64,iVBORw0KGgoAAAANSUhEUgAAABoAAAAaCAYAAACpSkzOAAAAAXNSR0IArs4c6QAAAARnQU1BAACxjwv8YQUAAAAJcEhZcwAAEnQAABJ0Ad5mH3gAAAI9SURBVEhL7ZZdSJNRGMf/U1e2lUIfohQaOlLpY5OUdWHBKAjKtIGRYEJUFIRGNxLdBAUG3XST3VhBF0IXzoXspigryFoRmfmBstGHYRar3MzJvvfvYpnrbO94O1BX/eDcPP/nnN/7Hh5eXg1J4h+QJRb+Fv9F0mQWxf0Y7zmHA9XroNdooMktgqmxA3c/hsVOAEB4shcXu0bEcgIqEZmmo3UztQAhrrKTvOOJCht8fHTKwrYHPqGeQEEU4MglM7XQsrLxLK/aB/h6bIiPHTd5odnE5QBLTj/lXNKOyLtrbNh9mROhpGISaUUhdyctRUa22t4wIIYM0n29gQWr9tPuWaj56WyvZZPtM2O/N/8ijcjLe0cqaLnipsLDkdEpdtdvoPWnKTrVTeu2djr9YuMiqcMQCyBYcgwdLQYsEbMFsteirq0WH24PYhZhuG7dwHzLCVTrxcYkRLNqvtpo3X6ewzPPeWbHIfZ5lC4tQeobqUVfik0Yx2h/F54Yj8OyJvNRmdNM5ORhZXwCPZ0u7DxagxViLiAvytIhPzqMvtl9aKrMFdMU5EUMYj6iQ9VhKwyKU7OIvCjiw6fYRjTvXY8cMUuDtCjmeYGBUBVqCtVopEVxfHtmh2u1GaU6MUuPpOg7XvYOYdnWCuSrPEFlm4B/DA5nFKZd5cj0MUhGShR634+H3nLUGfPESBEJURwzg/cxXbwH5oJsMVREQhTA5KsvKDtYD8NSMVNGwz/+r4tj7u0ovIVbUKxy4iAnkuMHPh8qDGjTEPgAAAAASUVORK5CYII=&quot;&gt;" style="rounded=1;whiteSpace=wrap;html=1;" vertex="1" parent="1">
                    <mxGeometry x="180" y="685" width="50" height="40" as="geometry"/>
                </mxCell>
                <mxCell id="29" value="Factor de descuento para asegurar que la suma de la recompensa esperada y la entropia sea finita&amp;nbsp;" style="text;html=1;align=center;verticalAlign=middle;whiteSpace=wrap;rounded=0;" vertex="1" parent="1">
                    <mxGeometry x="270" y="682.5" width="255" height="45" as="geometry"/>
                </mxCell>
                <mxCell id="34" style="edgeStyle=none;html=1;entryX=0.5;entryY=0;entryDx=0;entryDy=0;" edge="1" parent="1" source="31" target="33">
                    <mxGeometry relative="1" as="geometry"/>
                </mxCell>
                <mxCell id="41" style="edgeStyle=none;html=1;" edge="1" parent="1" source="31" target="40">
                    <mxGeometry relative="1" as="geometry"/>
                </mxCell>
                <mxCell id="31" value="Para una politica fija los valores Q pueden ser calculados de forma iterativa a partir de un operador de Bellman" style="text;html=1;align=center;verticalAlign=middle;whiteSpace=wrap;rounded=0;" vertex="1" parent="1">
                    <mxGeometry x="-360" y="670" width="290" height="70" as="geometry"/>
                </mxCell>
                <mxCell id="38" style="edgeStyle=none;html=1;entryX=0.75;entryY=0;entryDx=0;entryDy=0;" edge="1" parent="1" source="33" target="37">
                    <mxGeometry relative="1" as="geometry"/>
                </mxCell>
                <mxCell id="33" value="&lt;img alt=&quot;&quot; src=&quot;data:image/png;base64,iVBORw0KGgoAAAANSUhEUgAAACUAAAAgCAYAAACVU7GwAAAAAXNSR0IArs4c6QAAAARnQU1BAACxjwv8YQUAAAAJcEhZcwAAEnQAABJ0Ad5mH3gAAAO8SURBVFhH7Zf/T9R1HMcfByJXsPEtKbgKUjsRv6SVhLU1zzkThAprkZsNV63/wHStbNqXX1rTbGtrkWsLczGzBdiasKW0mkqi8UUq0YLxXQ4OTvGAu3v2wx15fHbH3TmY/uBj+2zvvd/P93vPz/v9fL8+dyZJ4jYjxthxO3DHVKTMvSnvOFddHmPvjJjCBt3rYrivl6HrXuPIjGhiiIv1h/jowyMk7P2V78uymGcUhULBcA/p3Ne79GJ+thJA3OxjzlHpJw1yeCS5OlS9u0RrHs5QanKykkM9KRYZdmqC7rr97NjxMcftqWRb0jDHBr4C4B6i5XQbI0BizhM8khb4/ibmJSwga7EV6/IneX7rZpYlx8JYK5+WrGf3v7nY8q3cZ/qTo7XzKSpZgtndy4nvWrFu2UBmHMSYMwJ36qqaDhQrHZOWv3NKo56Anfsftzq+XKc4EFi1p9llFATBqVNvPSXb2z9rwC1JHvV9W6L8nWd0TZKnq1zr8/YocCm/KY8Gal6VBUT8Bh3uC+pIUr8qnzH7jibjDdU7jePBcMvR1a/rU0t6evRNUa7K6hySJMdPLyvbdlgDATN8t2/8Ap/vPEg3sKD4dZ6+J8SldLZw7KwLgIQ1hSxLNAqCEUuSJR2zf0l35w981vgghSuSADdXWtsYJnZaGfC1XYMML97Kri/q+eNQKZnGHPlxtdfxyyCAiRVFq0kyCsLiorl8H42ZxeSlAYwzcHmQMccAzsCqEbBrYZjUpQOP+m/WEu2NKE/T8QxWqTQFWd9tkm+2UydeSxdJL6jKfkMX4pyC4LXTUNXqa2esw5Ydb1SEYYLLFR9wZPgBCjYtxDc7jtT7k2HkOAdPXmGqEkZuytlMTeM4AIl5BeRGlKcA3F38+NVpPLnbKVuZ4O+MZ9HmEhbh5K+mXiantDc2bWauNbyph0AQo7XlnXIbBRHg6mvXP8OTxl71XerUaMCCEZqaVPu+Vf485ei9lujzFA2RHZ/XzpnqC752pg1bVrR5io7ITDnPU31uAoDEvE0sjTZPURKRqbG/a/ltGCCGlTdVn6IjAlNuuupr6QDASuHaewlRW2eN8Ka8gzQca/O1s4vYmD3fqJh1wpty/M7Rs74KklnwHEvvNgpmn7CmRhorOTkKYGHLttXMccYhvCkn5ytrsQMs3Mb2VVOVeI4xFq5p2GtUmuKr4o/vv6hx4/gcMYMpj3oqNuouEJZXVNUf6off7BPalKdbFc/m6LGX3ldtj/F7NbeE/4t1CwgT9FvDHVOR8h+HuTg3+7YJtgAAAABJRU5ErkJggg==&quot;&gt;" style="rounded=1;whiteSpace=wrap;html=1;" vertex="1" parent="1">
                    <mxGeometry x="-245" y="793" width="60" height="40" as="geometry"/>
                </mxCell>
                <mxCell id="36" style="edgeStyle=none;html=1;entryX=0;entryY=0.5;entryDx=0;entryDy=0;" edge="1" parent="1" source="35" target="33">
                    <mxGeometry relative="1" as="geometry"/>
                </mxCell>
                <mxCell id="35" value="Operador de Bellman" style="text;html=1;align=center;verticalAlign=middle;whiteSpace=wrap;rounded=0;" vertex="1" parent="1">
                    <mxGeometry x="-470" y="798" width="130" height="30" as="geometry"/>
                </mxCell>
                <mxCell id="37" value="" style="shape=image;verticalLabelPosition=bottom;labelBackgroundColor=default;verticalAlign=top;aspect=fixed;imageAspect=0;image=data:image/png,iVBORw0KGgoAAAANSUhEUgAAAkAAAAA3CAYAAADkIvVmAAAAAXNSR0IArs4c6QAAAARnQU1BAACxjwv8YQUAAAAJcEhZcwAAEnQAABJ0Ad5mH3gAACq3SURBVHhe7Z13WFTH98ZfOoIIFgQlihXBHilijahRY/2h2DXxG1uisWsSjZpEo6YYa9QYW4waYzQq9hqNXayoKARBMICAUgRWFtjl/f2xi8Kyu+zCUpT5PM99WLhlhzvvnTn3nDMzRiQJgUAgEAgEgnKEseofBAKBQCAQCN50hAEkEAgEAoGg3CEMIIFAIBAIBOUOYQAJBAKBQCAodwgDSCAQCAQCQblDGEACgUAgEAjKHcIAErwRyJ7eweWQ58hW3SEQCAQCgRqEASR4/ckMw4ZBXmjbdjz84+SqewUCgUAgyIeRmAhR8HojR+xfQ9Fk4ElYWz2H8Yf/IHBVB9iqHiYQCAQCQS6EAWQIsmXIyDaGhalwqAEAsuWQwwQmJXE7np/DJ8194N/zBE6+swZt3o/ArJuXMaepheqRZQehlzxky+WAiYlwRwteGzKfxyFBIoei8zSCqY09qtuYqh5WwmRDlpENYwvTN/tZ0rV/yX6BhLhkZORYOEYWsHOoCqtc5xV0iZIhOwNp0tczdJGdHIClA3ti/uVU1V3llox/f8Yw37k4WezhKCnurp6MX1L64cf5neDa/1t87RWMb2f8jkiZ6rFlA6EXVTLw78/D4Dv3JIpdLgKBQUjD1VktUdPJCU5OTnByqgmP+TcgUT2sJMlORsDSgeg5/zLe9JZF1/4lO24XetbMqSMnONXshd3xebNEDeMBypYiKfYJEtP1S0FlZiJCz+3AD4v3wHrBRez7wBExhxZj6oKduBL2FJovZwTrJpOw/8TX8LBS3aeFbAkiL+3F7/vPIygsAhFRSaBNddRy80Y336EY1LkBKupjEqYGYEHPwTjf/yD8pzWFPkV5s5Eh+q9x6L6oIn48vhzd7U1UDzAIsoiN6NFsEqSLAvH3ZBeYA5Bc/wLubTaitf99bOlZtYxY+EqEXtQji8Zf47pjUcUfcXx5dxSTXF4b5KmReBAShxca2z/tGFlURR3X+rAvw07Q15s0nB/ngq6B83Dtz56whRHMbB1R084cgAypT2KQYlQBVtZWsDAzhbFcinSpFNIXUmRZ2OOt6lbq2yW5BHHRCZBbWMPKugIsjbLwIk0CidwKNWraQbN/KRUBC3pi8Pn+OOg/DU3f+IZFx/5FLkFc9DNICUjvLERnv3tYHHkJHzjmuvssLLJE3tr2Of2869AaIAq7Wbpy8MprTJZLeG9VN1a3c2En3/c57uMP2NGhJruOnsiJE8ezf5NqbOQ7jhMnTuTESTP4zY47TJGrFkoDsnheXjeO7zjbsHLjPpy+xp+XgqKYlBLDu2d2c83n/VjfFKzcegK3B0tUz1ZPVjR3j3BmrRH7GCtT3SkgUxkw72069VjDYKnqPgMgj+eB4fY0aTSH19Jy/z2Bx0bXoEnDWbySmuvvpY3Qi3ZSAzjvbSf2WBPM4pDL64OEtxZ2pJOtpbKNNKVt1WqsVq0aq9qZKf5mYceq1arSztpYpT01ZqWqVVgRoOuCe+X8PhYnqTw3tgYtO+7iM9VdKf9wSuvarGympq+zcmSzoTsYmaV6koK0gHlsbad6njWd2s1nQO42Lg9ZjN49gs61RnBfuWpY9Otf0q5MZS3z1vz1SV6joRAGUAajTn7HoS2rs2otV7p7t2O7dipbazfaKiuwomtrlf3t+U43X74/4TN+s9af95IUlZZ6ZQ7b+czlmXjF7/LYXfT1/owBEpLyKG7s7MWv7+rwn+ZBzpQ7mzneoxJh0pAj1t9mslqjSc7kgCXsaAXCxoc/3NaoNiVZjNz6His7DOHeJ+VJdHqSFsA5brb0/D7I4I1x6sXprGdcgx8eS6Bqlcoeb2dvWwu2/vGBwb+3cAi96EJawBy62Xry+6CyUWulTcrFmWxQtS8PJCp+TzzQj1XrTuXFXIa9LC2WodeOcN2UbqxjXoEtPvmNWwc7sdGcW0x/dZjAoGgxgHKQP6P/AFulEePEj0/EU6cnX/aEe/zsCFRh53kH+TBNtXXLS1bkVr5X2YFD9j7R7fpvEnr0LwYygNJ4Z1UfVocRm867osEDI2Pkpk40Awi46Gy0yJKjGJeec0E5Y37vzcYfnGIySSYf45A6PtwZn/cc7WTxybHP6GkJonIvrr6dkq+jzEsWw3/pTEuAaDCV55NV979CnnCUo2pUoNfyEGao7hTkQs64fQNZzfZdbnqk4bWnMEiD+L2HOSv1/I2P1T71Ut5f6kULu77cEaX2gBJF6EVH5HHcN7Aabd/dREPKJTdySSwjn+nWJpU6cdvZtpIXN0fLScoYvroVbd/5g5qawYyovRxd14gA2EAYQMWIDgYQMxj8XROlAeTMGQG6RhZCudLbge2+DWSBZ8gTeHRUDVbwWs6Qctmw6N6/GMAAkjP+0Id0AgiLrtwZq8mciOOf3ZXu2xrjeK4wYYisR1zXviZ77IpT/Br6I1vY+vBPzWpTQcaYfaNZHyDMPPnVleQCjB8lScc4oioImLH92jCqv6US3pzrSuMqQ3goQXWfIB+SAM6sA9q/f4LKF9kiksXI33qykrmHdk9B6mXObGBKpzEnmahT5RcXQi/6IAmYyTqw5/snDKOWvGTw/uLGtOmwjbGqu8oiz3ayXSVPboyWk8ziw2UtWbXHPmqTUXrQj2xtBtYXBlAxoosBRCbs7U4LgEAF9tyvi55ljNo5kI376PYCILk5l67GVTikPDcsOvYvmgwgtblYasm4j/WfbUY0APs+Y9CxmoZTU+/h8A0pAMDasyeaVFQ9oGCkdzdi+c2a6ONVFQCQER+OZy+SEZ+qPes7hxf3VmDIsE0IQxUM3L4fc1vbqk86U8XubfRpZQEgCxc2HFQ/kuj5VazZEAx73/HoWEV1pyAfVs0xaowbnu5ZhuOxhczqzE3yOSz49AheNGoF+cmfsXLlSvXbpiuw8aqF6I1TsDzwhepVSg6hF72waj4KY9yeYs+y4zCEXPKSDWmqFBkv0pChW1PyGiBF0C9z8JNS45auwzGlfSWYGBupHigoYSxruqE6ACAd/z18CnXdSW7kcYcwZ2EyJiwbgTqaM56VPMfVNRsQbO+L8eW5YSli/6KTXQAAkD5DUoOh+HzDOQTuGIyaGhKvpQ9P4fwzADBCs95v6z8hXXYCTn63Fv++1Qsdaii+hFlSZGWF48zd56pH5+f5BczrPxPn0oGK7y3H0v41oaGoarDGWy7VFB+DDuGWmq9L+Gct/oqzR8/h7rBR3SlQgwXq9xqABi9OYtW+yAIbgYKQJUchvWYDvJV6HD8vX47lGrcV2HyRqOtii2cxaaW2RIbQi55Y1EevAQ3w4uQq7FP7BiLIgywGp9etxNaABIXGjaui02cLMaOPM8xVjxWUKJY13eCg/Bz34AnSVfbnITsRf8+fh8j/rcCYBjrUXMI/WPtXHOx7Dod7uW5Yita/6G4A2XbCj/t/x5IxHVBDY/3IEHPhOMIBAC7o2cZBD+NDQWb4dizak4Ra7/VAPeUwTrMqb8EOz3Fi8z94qrUny8D9n6diRSgANMSkhX6oXaAlnRsjmFuZKT5mxuO/JNXbmYyA7aeQbOWF3s11U508NQLXju3B9l+34Ldd/jh5NRyp8my8eHwZp248RWm8iMpSHyPwrD92bd+KLVt34eCZANx/nAip1ntbeCwbvAsfRzkCdpxFXBG/w7TO+9hxIxSPHkUgIqKg7RHCQy5hba/qeghdfzT/S/rqRY7UiGs4tmc7ft3yG3b5n8TV8FTIs1/g8eVTuPG0NNRS0nqxRIN3feAoD8COs3Fa7q0AALITb+F0mBSkYtQJYIoa3SdjnJddsWpeUDDGlZxR307x+VnIf9Dmh35+YSE+veOHFRMaQ5fZC5IDtuNUshW8ejfX6cWqLPZDhqJI/UuegFhRkcfyj64Wyvyf8Tyvd/5PFsNWtiTQmPNu5koBkwTws/og3L5ioJa0D1n0TvatpBw+6L6CoTrEUfOSwr9HVVMmrqlJ4JZc5XRnEM2WMqSAa0tCdnJa59o0hyVrNHJnh2692L2TJ12qgKhgR3OA8N7KJ6onFiNZ0Sf57eDGikTvClXp1KAxmzeuwyo5QzarenLkor0MUp/dXnjkT7itoylh68fDSao7yzipt7lyWCd2aN+S9Vy6cJb/Y2aQTAvZzbkDOtC7vQ+7+LxDn+FLeSVJ5b7prBcJQ3ZOY+fa5oRlDTZy78Buvbqzk6cLqwCsYGdOAPTeWpJqKT29yJ9sY0dT0NbvMA0rl3TenF2P5u7rGGng3Hh56n3+Oc+P7k5WBEALxxYc8M0xRqlNTs1gxJ5FXH+ngDTXgnKA5Mm8OFuRaOu+/nH5GwVUauiWA0TpXX7lonxWGszlLU1JWalXONvdnZ9f1rXDlPDqdGcCzbhUe8NSJvshg6ND/6IpB8iwBlDySY6oohz+3m+/1mQ9jUhj+fBRUr4EZGlsGB+naHvEMxjyYyul8WJC73WP8l2jQORR3Ng6Z/4FD65XGWIke7SG7gDtBh1VjE7TgCx2H4dWB2Hvxw2BKgnYGU94eq6nQnhemxlj2L5DM7Iobu2aM7cI6DAqV9KYJIx7JrdQjtwDjRtP5gnldASGQcKr02sTqMtPrxXQ6JcpJLw+34f91oZQymf8q2cFwrIzf/JfxL4+E7jjQRrlkiD+MrIprQC2WBqS52zd9CJj7L6hrA7Q3m8DA1Xmach4cppzPRUGkNfmGN2S+Q1BaepFcpXTa4Oo+ykNK5fiMYCyYg7yk2bKOXpUtvoTjjHfrUk+y8k+k/i3ZlEoUGsA7WW8JI73jm3gFwNcaV21Nbu+ZUkPYQCVIDoaQIznHz6mCi3Y+GronCW89bU3W0w+S9X3J43IHnGNOwi7QTyqRUNlsh8qFgruXzQZQAb1kr4IPYmLiQBgjGZ9Wumf/wMAFg6oXyf/rJcWDvVQy0ZLQE32GIe33VR8NnLHqPdq5btGgUhCcC5M+dmxJVwr5/2+9Oh7eALAvlENLW5KGR7tXICd8YDtOx/Cr7lKAra5IzrPXospdXL/sQTIiMHdUEVyOgDE3biDpzkRPqt6GLBkA6bXV/yafX8Vxi66ZsCp3S3g0NAeQCyCojNUdxZAKi58+g5c69dFnTp1irbVrY9mfX7E3Ve3QTtJZ7HyuCumjXCBBYxhamIESP/GJ+MC0HfDcgxztcaLWz/hq2338AJmsLHJqwqd9CJ7hJ0LdiIetnjnQz80t837SJo7dsbstVNQ0nIpVb1YOEAhlyDoLZeSRnoPy3z746fgBvCbvQZ7LwQi6PZ5HPx1AYa3rIiwteOxOCAt1wkyROxejpA+E9FO7wYyGwnH+qO6tQOa9hiLRQesMePwHxiTkysgKGNUgJOLveJjagQeJecPNGXcX4spfzbFt/M7wE7X3jg9GvcUDQtqaKz6MtoPFQuF7190veU6IMOTCyfwCFDk/3hX1zv/p0gkXsfBIOXnul3g5aD/t0vDTuPiM8XnSm36oqnKCLaMmBA8BWBbu5qWBMMMxIXGAwCeH/gC83beQaJqKpGVGwZPHIVR/ZvCxoA1oBUrV/iNaKk0Cq3xzqgeefOjrNzwXifFmAUAiDxyBA91NRQKxASVajjAEun4LzxBz0Q1KzQaMBHTp07DtGlF36aO7Y7amisvD89v7MGDJgPQ0gaANBJX778AUAFdFq3AB/UVF7FqMQHfzZ2AWauP4vcPnPOcr5NeMuKgkMtzHPhiHnbeScx3f6zcBmPiqFHo39TGkA+sdkpTLyaVUMPBEkj/D+EJqnejLJGJh5smY4V0PPYE38TuxRPg2645Grdoj94fzMP2K7ewsV86tn1/Ek9zTpFcx9qtFTB2WEPNmtCIMew6/IQL1y/iyK+L8HG3NCzvOQBr/pWCqocKygCWqNk4Jw06HvejVR6QzIfYOGUzai1ciHer6vFkZ8QgRNGwoJpGEZXRfqhYKEL/kscfVBTksfy9s8JVj5of84Ku4UwDkX79c9ZTup1tfA9pnRNAPVIGzndRuq5t2G9PnEq4Qc6oDR4EjNnxD22OTxkjfm5Dk9yucFMHNvMZyPGzv+fGfecZmlxazuoMxgVdYUBIoprwoIQBs+q8KnP10TxrwDpMPjaYdgDrz7n5msxPImPkjgmc/bfCby0L/4nuAFGxH/11iu3qqBdZBH9uY5InbGLq0Iw+A8dz9vcbue98KEtNLqWml2QeG2xHoD7n3DSkWgwcAks6yQ9dfbg6VG2iD0lSFrWdfV18uTeeJGWM2u5L71mXWdBc86SmEFjuHKAUBizwoJnIASphdA2BkUkH/48VAQJm7Lwr9xSWWYzY3Ieu/XdomMxVM/KoDfQAaNzxDy3fX5b7IQ3IEnh59cccv+ae3n1EQf1L8YfAUm/j4K1MAEBFrx5wK8T8P0UhKzUeOY5mh8ZOqKCyv0Be3MWObf8qPtf6Hz7trjpyKBtSSRYAU1iYaZtjwwS1hizDF61yvS7L4nD3zG6sX/Ipxvh2QMPqbug7ZxeCNcUMZNHYM8YLXh8dR6LqviJhjuqNW8OznjGibpzG7g3fY86E4ejX3QftPNtg8PqIvIdreq0sRPmMLaxgBiAjLeM1GXFggtrD1mCxj2IYR+KNQwgCYNy0N97WKXSho15MamHIsi+QVy53cWb3eiz5dAx8OzREdbe+mLMrWGOISRa9B2O8vPDRcV1rQ1cMoxf9y2cMCyszABlI03nCnmSc/MAZ5kZGMNK4VUCrJeHIvPExnE1V9+XdbDwWILAAj5Y8XQrnMYswUsuwZROn3pjU/jH23XwOZP6LnZskGDneA9aqBxYGYxt4Tv0BoxyVI1cFZQ5Lp5y5gLIQ8288cgI08pi/MOsHOWYsHYRaegYrsqUSZAEwtTCD5pallPoheSwOzp6GbeEKW6AgspNv4Ldv52LGR0PRvXVztJ20DrvOx7y8T7pS2P7FYAbQi39P4lISABijeWHm/ykixpY2L/MsbGrYQb8mIRvxx5fgl0cAYI1uX06DVz4DzghmFqYAsiGTa2jplRjbemP+yfNYObyl+vuQGYqDS4agzaCNCFOjE9l/+/DtpmsIfQ6DhhHlSdexeVpvNK1mh7oeXTHooxU4EWkBt24fYOaSlfjGz0n1FLUUpnzZ8izIAZhZmmp5aMsqqbh3+AakABr0aI3qOv3TuurFGLbe83Hy/EoMb6lWLcgMPYglQ9pg0MYw5JeLDP/t+xabroXiuc61oRuG0UthypcNeZYcgBksTXVVSyW0+2YvThw7iqNHNW0HsHawA4zrT8H2w6r7cm8ncGTrx2hiqfodeTGp0RvzZ7RR/4y/xBZv96yNiKuPkXR7Kw46TcTAunpnJ2rGphm6NbWFpWX+zlDfEcECw2Pu6ApHZcXEPYiBFADkcTg8ewGefbQMIwuhBSMzC5gCyJbJNb1zAKXVD2XF4sr+vTjzWEcTxsgM1tUboM3Qr7BtywS4qu7XkUL3L3n8QYUmiyFLmytdba78JkizS7i4yApbyZZKV1/zZQ/VuOy1ILnO+Y0V51p0XK1xXZW4He1pDLD1r090Ho2TkRDKS/6b+cPssfRt70K73C5J2NHvQH4nZtyubrSAGX226/49BSENWc++Dq++u7bfSl6Kz32XJLymGtJIybU7F4UpX9IhX1YE6LYoSP/1sDJSGPs4ghERRd2iGJ9WCLdv+i3ObQACDhytR5xHf71kMCH0Ev03/8DZY33Z3sUul1ZA2Pkxv1ziuKubBWHmw+0q7t2iYDi9FKZ8STzkW5GAGxcZtC0xcAhMR9JvzmOHIb9z9+j2nHRO7U1ST0EhMCUZidFMUJmxI/nkKDZsU5ipQAQFo3sIjCl/c1Q15TPiuYFRcjkTToxn07aLeUddrEYX4nawvTGI1r9S10eqxPqh9Fuc41qb/zujh86VZNxfTDeAdkNOaBk1q56C+pfiDYFlP8O1ww8Un+v0Rrc6ml3CxYVpzXboUU/xOfbefyqzbsqQFPwP9v5xEFcfS1TejF4gcNlYfHMfgL0fNm4dBxcNxa/gWB9VADyPyp+o+opMhG+fiP5jf8XDTMC8SgO06fs/zFz8C/aeD0GCJBKnl/RSzhCajCunQlVCG6m4d+QmMuCG3p7VDOOiy7iPVcMm4ECc4lejlt/g0LbJaGOf9+2DeX7TROHKJ02IRRpM4VBPS0KwWpJweIgTHGurGdWl9/YWqrtOxxVNLl8NyGMv4ehDAFYe6KWaGa8FnfSSGY7tE/tj7K8PkQlzVGnQBn3/NxOLf9mL8yEJkESexpJeykTK5Cs4FapS+NR7OHIzA3DrDU9Ny9PoiyH1UqjySZEQmwaYOqCe5izP1wbTSlWQHbwbP/3bBaM9dZm2Tj/MK9dEldyjgeQxOLxiL/6r4IhKuass8ymCzvhj147t+PPQWVx/EIFHN07jzIPn5cNbJHsBSWbe/zQ74zmSX+gTNNETi5pwe5kH/QBR8RexcNYN+K6cjGYFeBg1UsER9RUNS/7E5peUwX6oGCls/2KY/yv5OvbeyAIA1HyvH9ysVA8oASybYOgHTQAA8X8fQXDOtJvZCTj7ZX/4LTiKiKRw+H86CNP8nyjjhHLEHp6FQfNuIbtCWyw4tBHDtBhvFsqpzRPCXsVy85OB/87uwb6NX2P97fxzfxpb1UbnTzdj9XuKLCUjYyMAcjzxn4jOnh7wcPfC4K3PAERjw1BveHj6YPyeaNXLAADkkgTEpxX88GYnBuCvG6+OcxvcH43yPXxZeB6TovpHJYUr3ysy8DQ8AYA9Gr2lrzgqo9efMXj2JBrR0UXcYmKRGLoM3nomYCReP4ggAEbN+sJdObOrLuikl4z/cHbPPmz8ej3yy8UYVrU749PNq6GQixEUcnkC/4md4enhAXevwVBUxwYM9faAp8947IlWr4kS00shy/eSjKdQyKUR9JZLGcTYyhayO/543mcI3PLdRwOT/RzXfxyOsYdTUMOjPioCQHYSrvzwf2hQvTGGLN6Gw2cv4MTvyzDp3Xqo59EVA765hlTV67xRyBF//AsMHD4GA1rWhdfkA4iMPIoFI/qg7/ApmDa8HVr1/hLHnmi0JgqPuT0avKW0TuNu4fiiaTjbdQVmeejZCOUmx6hKCEO85oalxPqh0qcI/Usef1AhST45klUBAk785KJO4xuKBfmzoxztBAK27L1FMRFi8t+T2HXKKSbkeL4Sj3LMe4t4R5rFmKOz2MoMhH0vrriVUrCbL/kUR1YF4fmLlsz9FJ4dXZ0AaN5+Oe+rm7laHs2tncwIVOHQw3kd2llhq9gKoN3AI1pnwU0LmE93MxCozQ/2RGsP+SX6s6/1K5enw4en8l1bFrOHwxxzuUXtR/FvNV5MXcuXl0T697EizHy4Q1efbZkhhX+PsicANlpwj+qqUyO66CXlLEdXBwFztl9+X+315dFb2ckMRJWhzCuXLIatakXAjgOPaK+N0tGL7uXLQ6I/+1iBZj47dHbx60bphMBk4avZqqI7V+gbj4rdxjaVWnNLjFwxqnCjJ23bb2ec6nEkSTkl4cf43YB6tLBzYzNba/r8oThSEjCL9QA2Xxaat96T/ubYGqDdUP1DDiVHBh8f+orDfJqwZpUadGk/gt/4h1H9dHdK0gO5Ysa2Vyuqp13h7Pdm8FxKFh8ub07AhDVbjeZvwcqrZIVzrbc5K723WadV2PUKgTGNV6bWevmcGNf9mKcTiyrqZJ4aWZWAJ3/R3LCUSD+Uj1IJgRXcvxRjCCwVt/88iQQAqDcCo1oWwbItIsZVe2CF/7fwqfQchz4aisUXYxBy9iGa+bVGlZz/1KYeXJP3YNknPmj83lIk9v4OZ+/ux5SWOsyxYtMEPZqbAQ/PIjj33GYayLwwDd4+U7H1XDDipdkAMpEceQ07PxuCKWezYNt9Ib7sknsl32wkXjuIIJihRZ+WqJRrT14y8d+Zv6Bwuj3G1q+3IVRNEttLKnfGFzPcXyaGx20eiQ+Xn0NMBoDsNISdWo0PO4/Dg0HfY6ByLVg8/RPTRozBrG/W43hkzmuGruVTQfoY1x68AFx7wuNlRbwmZDzC2UtPAdRE5851NE9oqA699JKJC9O84TN1K84FxyvW2cpMRuS1nfhsyBSczbJF94VfIq9cEnHtYBBg1gJ9WmqrjVLSi87ly4v08TUo5OLx6rl9jclKfgJ5k+HoVfAS30qykfE8FvdOHcVji7dQBemQSNJhWqMhKjz0x6l/k5AmkSAtKQYh18/i4I6VmPF/zeBQrwdWpQ3FzjPf4W0bJ3jUV4Rr00KvIALAnaUTMO3bTfC/9C8SMrIBu7aYvWEjfprUQuEpUiE7NQIhMS90Co9l/rsB47+8+HIkrnayIY25gq3T+2LAsnuKxGC1ZCJix/to03sh/kmphQ69O6Ju6lHM7dcMPrMOIVqDhuVPA3AwIP7lgIHUa1txtflAuNukI+peLID6GLNpFUY2UnoLTO3RpGllpBxdgyNRBXgn9cYSNV/GwKpjxKqv0KlyUUVtgyY9msMMD3G24IalGPuhMkJR+pc85lBhSDjEwZVBwJgeK0LVJiCVNOkPd3NmFycawZaNGjmyxdQ/efXeHV49/SdXzvSlixlo13YcV516lOdNQp4cysAobZlpWQxb7Ulj1OVn1zUdl8oLHzsRth4cvWgRx3eq9WrJAOXPCrU82H/ubganqVqrOZZ9U34frP1OSoPX0beWGc0cGrOJy1AW+IItT+HdP+ZxaMe8CXAmAI1rtOPoNVeZKM9gxN7P2MPNkTYmOcdY8p2Nkco5RnQvX25yloRoOPeW2jkayjSJ+9mzAogaowteuiAfOugl9QI/dgJtPUZz0aLx7FQrZ0kFY+XPCqzl0Z9zdwczv1yUHqam37Og6igVvehRvlfI+GiNO4GGnKtx8aTCUhoeIBkj13ek60fnqVv6vITX5ri98qwVdqvsxwPKl3rpg2Vsk7N+28vNnA6Nu3PKpqvMk9v+kgQeGFCZNj3zJ12rI+3SJ2z67p8FekTS76ziqN69OOD9YfSyBmuM13JfEg5zWE0n+m28n2vepHSG/TmBzc3Bat2X8EKCakVKGfR9W7qMPsMcH0RG1BVejckgpYGc3xCE8wxezeNCesa/elgScOF8bYtNvkQfD9CrOWoq+/3JGNXiFpKssNX0NAbrfnZdQ5tajP1QRhi3TejDrl26sIvq5uPFt0xB+1ad8u/r0oVde43m+vvqS1xYD5Au/YsmD1ARDSA5Y7Z3YwWAcBrJA3GqN7I0yWB84GFuWDiNY0YMpO/ADzhx9mL+tPEH+lW3ZNst0SohrzQGzG7D//sjVmsoTBa1lZ0tQJcvA9WGK0hSlhLD2FyiykqOZsida7wacJvBMWmaJyxLv87P64GoNZVXtPp4cyF/zE2+ozSsM6MeuTSRUQ/v8da1WwyOTtYeDslNYcpHGR9v6kgzNOe399U8TGUeCSMuHOG58DStutBEwXqRMSUmNpdxk8Xk6BDeuXaVAbeDGaNl1FrO5J+1pl7RHhLITQnqpVDlkz3mpo5mRPNvaXi5lIIBJI/jru6ObJ+vvSlJ5Ey6to4ftnV62Qnm3qoP2sFI1UpNOcMPq5uw+dIQnepbVwPoJWlXOLWWdgMo6fBguvb7ndH56krO1DvrOaSOEY3r+HHp6ceKjk+WzLtbP6RrJVd+HpBfcbKIdfQEaDf4aN6wTtplTn4LhFknbtMQQsmLfgaQLPYo54/7kkcMZf2QirX6OlsQLl9qXCC82PoheQrvH/qVv6xfz/Wq25r57Glvy7azVuXft349f9niz8BE9d9cOANIt/6leAwgeTS393Wl+6BveDJGl8ekDJB6jmMdQdsB/nz28l7ImXTpS3rX6cddBT0A8nju729L1J9Dg05SmzvuOuhV3FWWHMGwRC33NvUfTum9kIEGLos6ClW+rHCuaW1K8w4/6xhff8MoNr28yq8Z9NKdI2NyRBi1VUfJ6aVw5csKX8PWpubs8HMhFjMukHQGzm9IS8+NjCrgMTcYSUc4yKEup1wuxdzIlDDeDHxMiZyUxgfz0qHfuHzuR/Rr50QjgEADzr2tEER6+FFu/WU9137jR0dYscOnq7l+0x5ez+dpyYvhDaAshq3qxHc3RWk0HGXPznNxt2oKQ866Cu1MQaAae664xRQ1Jz37qxetYMZO2/IO606/PZcNAJp12qijYayfAVQ8yBm/vz9tDT5beiHb+RxKOgdIx/5FkwGkZ8BMBeOaGO7/ANd3fYGuNXSNb5cycilSpcDzv6Zi8k+HcOHCMWydPxCt3/ka//WaiZ6OBdwSY3v0WPA53KN+wQ+nE3SKj+tK6v2/8S9M0aK3Mu6anYBjM0bhp/uao+Rpgf4IauiDesU9uqSQ5ZPcXIdlN53xyXfDoXMKxJtEseklFff//hcwbYHeyvya7IRjmDHqJ2ipjhLUS2HKJ8HNdctw0/kTfDe8jv6LGReIJRoM+x4/L+wG+wIec0ORFnQQl2Ut0bVRaeVGZiNuz1C0atEN392VwsK+Edr0GompC9dh94V7OPGhA4BMSKQKZWbTFOaW5njx4DJirT3xTsNKqFDBGlYmek0vZwBMUbX9eEzpbK8xN9OkanvMPvoQQfuX4bOR/TBoxlL8fjEQ+6a0VLO2VRruHbmOF3BBD48qua75HFfWbcZDuGDK4kGorfOMf6WNMex7LMDn7lH45YfTSDBcw1Kodr60KHL/ksccKg+kXeaUWvndwLDz5Y7HWkzIPKTy0syGrNhqEe8azPiWM+bXdjTGW5x8OY1kFqP+Gscu4/wZq+mtJCuCvw7sziV3NfhADUrhyrelmx0dhh9gvJo3svJDMehFHsNf2xkTb02mojqi+Ne4LhznH6vZtV2SeilE+bIitrCbnQOHH4jX+Nb/eiHl3a9dWbHtJs2jAIsdOaM3eipyP1zHcdudpJf3Xxp1grPfNiNqf8J/8rxyx3NPT2ta+GxXMwpPzvRnUfkmGX2wfxRdOqxjoOrko49jmaquWS3QA2RgpHf4pQsIVOWwgzn6kjH2yAQ2rOBE3zX3dA/TlgkPkILUSzPZsGIrLjJcw6J/O5+bIniA0m/OZj2A1n326XZf9ehfNHmAyp8BxGSeUg5rfrmZvc1PT8drbJjVIU88y+mNq7HDimANuR36I3tykB81sWNDv1mcPWEo+0/awVCNuk7ng7UD2WP+JSYXUPmGQr/yyRi105c1ao/knvxB/HKH4fUi45ODH7GJXUP6zZrNCUP7c9KOUI1JgCWvFz3LJ4viTt8arD1yj5qcj9cUeQy3dqjExt/oOX2CgXmytS3NzOrwnR5tWdfaiKYVq7CqjRlhWpmNuk3nzhCVrj/lDEdXN2HzH9Xk/6QHcfXANnR3d8+ztXSxI8yd2ULl7+4e3TjnoprOsIQNIFnEz/QyAq07z+W0Pt05YsaXnDO+H9t6D+R35/Rr+8uSAUR5Is9Ob8xqHVYw2EAi06+dV0FfAyj1Imd392Azl1qsVtGUxsbGNDaxpF3Nemz8dgf+74/Hqmco0a9/EQZQLuRJt7jty7H07daTgyd+z0PhutZuXqTBa9mztjtnn0803BtrVhLD79xhREoBlSq5ww3f7WGYgUSvMzqWTxK0it2dvflVgI4PQjmgOPSSlRTOO3ciWEB1lJpedCufhEGrutPZ+yu+UXJJu8yprm/z6zslfNNVkaUxSaJUXFYq4yIfMjQ8hin5rBsF6bfnsaGJM2cqE4kzYgN5O1bDwUoMnwNkWJ7t7U0rGLPtpijKZCmMvHuLIc80J81qpwwZQCQpDebanrXpPvs8izzFUA46tvP50NcAKiT69i/CACoW5Ey+tpR9Wg3ilvDCPkxvHrLYg/zYy4df6OlVe/MResmPjLEHP6aXzxc8Hf+GqUWewrDASD1CK2WDuN/fobltfx5KIim5y+UDP+C2CEMbQIqRV47jzpWAAZTKf8Y4KtepNIQxmspzYx0JVGEtZ2c6O7uwy7eBmr2bJYA8+RqX9mnFQVvCS3cqmvTbnOvmrNeaifqia/8ij9vLIY2d6ezszNqOloRRfgPIiCRV84IE+pH55DoC0t3Qvl5pJTqWLTJjruJmVjN4O+s5LXk5QeglN5mIuXoTWc28IeRSNpAGLUe/fltQbWA3WEYko/GEJZjawV7riuCSy5Pg/WVHnD0xEFVVd+YiM+IPzJy+FUFxkbgd8ADPK7rCq1UdOLoOww/LR6K+5pWICo/0FuY0bYUl6R/hfMg6tFc366NeyBB7YRf238lZQ80ElVv5YpB3da33qNjJfILrAelwa18PpdeySPDw+Fmke7+HZrb5MtENgs79y4sQ7N9xGjGKVboAMyd0Hd4PLrlOEwaQQCAQCPKS/QJx0RLYOtnDUod+TFcDqKRJuzQHff+3EZcePkOGSWU0bN4RH23ZiemFXolU8CYhDCCBQCAQFAnJ5Unw/qojzh4vWwaQQKANYQAJBAKBoEhkJ93C4cBq6N6pFoojiiUQFAfCABIIBAKBQFDu0CG6KxAIBAKBQPBmIQwggUAgEAgE5Q5hAAkEAoFAICh3CANIIBAIBAJBuUMYQAKBQCAQCModwgASCAQCgUBQ7hAGkEAgEAgEgnKHMIAEAoFAIBCUO4QBJBAIBAKBoNwhDCCBQCAQCATljv8HIW+xILDZ/IQAAAAASUVORK5CYII=;" vertex="1" parent="1">
                    <mxGeometry x="-646" y="927.5" width="576" height="55" as="geometry"/>
                </mxCell>
                <mxCell id="39" value="" style="shape=image;verticalLabelPosition=bottom;labelBackgroundColor=default;verticalAlign=top;aspect=fixed;imageAspect=0;image=data:image/png,iVBORw0KGgoAAAANSUhEUgAAAg0AAAAuCAYAAACrvyolAAAAAXNSR0IArs4c6QAAAARnQU1BAACxjwv8YQUAAAAJcEhZcwAAEnQAABJ0Ad5mH3gAACjVSURBVHhe7Z15XFTlF8Yf9k0EQRZFxZUEcwVUyg0z19Qfhnsl5ZqWSy6lKS1mmplbWpnmUi5ZbrikpaSmqeC+oBiiiIBAssiiM85cnt8fM8DMMMsFUce838/nfgTuHd879z3Pe88973nPtSBJSEhISEhISEiYwFL3DxISEhISEhIS+pCcBgkJCQkJCQlRSE6DhISEhISEhCgkp0FCQkJCQkJCFJLTICEhISEhISEKC3NcPVGklKPI0g7Wj8WlKYIgAFZWj6UxiaeGB7ibkYVCQS0PC2s4e3jC2Vr3uMfL49WGuSNpV0I85qCdIrkMRTb2j/0cilRCMRklKLqXhYxcOYqdAgs7V3i5O2p9ztT/8ZgpQm7sAvTvGYnj+br7HhHyf/DdkDDM3J8BQXefxLNLQQymtqgJHx8f1VYzCJGnC3WPeow8AW2YO5J2JURhJtqRx2FOM0/03JGtu+cRI8c/3w1B2Mz9yDAqlCJkbO6JmsVjno8Pavb6FZlF2kcZiDQokX87DXkWDnB0coSdjTUsBRnuy2SQ3ZNBYeeBWp7a3kcJQiEyUrMg2DnB0ckB9hYK3CsoRKHgiBo1XWHsQS0/9lP0HHgE/XZFYdLzjrq7HxnK1K0Y1W0Oqnz1OxZ184CV7gFPAUL+TVy5moF7Oh0sFgs7d9Rt3AAedrp7nlEKjmCUXxecn3USv/R0ASxs4OJdE662ugfqp6jwJo5t24gdR+KQmJSElBzC2bM2/Nt2RdjgAejcsIp+/RjgSWnD3PkvaPdRINy9gbj4W8jIzETmv/8iS1kP/4vojjoi7fe/hNlop/AE3m0YgmOfp+H0mzV09z5alKnYOqob5lT5Cr8v6gYPA0IRCjOQekcGQoYLszsj/NLnuHlsGLw1ByvqI+8wJ7Spw2o2IKCzOXqz6eANvKnQ/ZCKgthZbOOq+zkn+rwYydgC3aNLUaT+ytd8a/O17elU6u58DOTHzmJLn+5cHi/T3fUUUMizszvQx8Vefb2t6eJendWrV6e7q43qb3audK/uTlcnS52+sWRVdzdWAdj400t8Gr/9IyH/L46sYc8Om+/o7jGKMvM4vx3Vkb7O1RjQ+z0ujzrGuJQc5qVd5MFfl/ODvg1ojWpsM3Y94wt1P62fJ60Nc+fp1u6jQGDG1oF8zqtqqc6rD+OfebrH/fcxK+0UHOc73mCr1Wm6ex4P+bGc1dKH3ZfHixjnC3hiYm3atlnL24L2Hv1OQzHCHUa96qI2PB++/UemuAuvvM0t4a4E3Nh51i5eK9BpVRfFTa7rUY1eg7bxtqgGHgUFjJ3hT5fg+YwzfUXNlry/p7Chex/uzFb9nr2zL93rTeTf+aXHKAvSmXDyN347oSvr2jqw+Ts/ct1AHz434yzvlx72bFNep0HI44XVoxlUFbRq9BpXnMulXqsXchk7twMdATqHfslzRhxp0ly0Ye78N7Rb+QjM3DWU1Z9Vp8HctPOknQaSBbEz6O8SzPkmhWLYaTAeIbV0xnOta6l/sYajq5O48B8LkJpihxfnHcSuT19BAydjzRQh+8BH+OBQI3zwSS94i2rgUeCEwAmfo+uNOZi4IQlK3d1PCc4NW8BTkY4794sACMi9eQvKOm3RqErpMVZOXmgY1ANjFv+Oq9c3IGjPMAzbnCrNC1cUZTp+n/ESWr+1Aontv8bp0+swqrmL/ukHSxcET1mLxZ3tkX9wKsJnHsVd3WNKMBdtmDv/De1WPpao1rgVHnMg3EyQtKMPp8AJ+LzrDcyZuAFJFRSK3nGtFFt4NKoF1TR3Jq6kyXUP0IOA1C0zsMLjc6yf3AwmZ5DunceiST9C3jcSb/g92Qk3S8+umBpRDfs/+AgHc3T3PiVYWcEChCq1gShSFMHawc6gs2frE4ZluxegjY0qjilRToTb2DGmHbp/cRJC8MfYu2EsmjubkJV1PfSfFg53ANeWT8fG6wbUa0baMHf+E9p9FFiazpj/TyJpRz+Wnug6NQLV9n+AjyooFJP2ZF/TH54AgPu4de1fk168kLEbM2bnYuzC11DXWNajmrsxy7Ey3gNhozvATXfnY8cRzSJGwP/fLVj4e7r6xvtfRIa472dg2fl7AAD7xkMxoV1VWFla6B4oYZR7uLR4EIb8kAi49cf6HTPRxsWkpAAAri17o5UdAMVRrNx1U6+uzEsb5s6zol0JMUjaMYxjswiM8P8XWxb+jvQKCMXkCGdf0x9e6p8zrtzGfZ39WhRl48/IWbj55mKMaCjGu8vC4W+2IsOjJ4YGOuvufCLYNeiFVxvew/6l23FT30j+X0CZhuhvl2BdbJZqcLV0R6f3Z2Nyb1+I6TUJFXePzkK/KX/hPqqgx6IF6FfTUDxHD0614Fdd9WPc7rN6pijMTxvmzjOhXQkRSNoxil0D9Hq1Ie7tX4rtFRCKSafBsqovGriqfr5z9RZUz6b6uXt0NqZdCMfisQHqKQ0T5MZi/YFcOLZ+Bc3E9K2Qj6ST+7Bl/Vqs+XEzovbH4Hq+gKJ7yTh+4DT+rYxJefuGeDnUG0LsBhzKqIAb9hRQlH0W0YkykMVTEtao0W08RrV2NW0QEirkl/HdxMVIAIBG72J2eB2jy4nLYGELRxvVjw8ybyFHV7vmqI3yosxH8vlDiNq8HuvWrMPmXQcRezkZ2bJHpKtnQLuPkiJ5NpKvnMO5y0nIqoQ+Kiq4idP7t+KXvReQ/Tjtr7zaAaDMT8b5Q1HYvH4d1qzbjF0HY3E5ORuVcBnKiYD8pJPYt2U91q75EZuj9iPmej6EontIPn4ApytFyPZo+HIovIVYbDiUUf6onHZepB5kF/mxn3rZTsOZPGsovT7/BKcHBvKD4xpp+iYojHmPvgCbLrhKAys4VRRe5aZJnVnHFrSv8RwD23dlr26dGOznRsCBrrYg0Jbrbut+sCIIvP1TB1rDheF7cnR3mj93NvHFqsFclSqQVPDawhZ0776dWcX7hVz+Pb0JATBwRbK41TDPIkZXTyiZuqkPq6qXswUuTjBuv/rI+5MR1dW68vuEF3WSmc1TGyJRpHL/vIEMsAcBB7r7NGRAswDWdVMv/4U7g1+fw21xefpXmFSYp1m7AvPjozh/TE8GtXyBnbt248uhIWzTczI3xuVX+DopEhezudHVEwILrm5j5Kut6d88lANHT+TEMYPZpaU/A/83nZuN9ZEig0e/HsEuwcFsH9qZnUKas2noKC6Nvszj30SwU6cBnDhzNAPtrdlijojl3EI+46O+5PjXwtgttBM7duxofOvUiZ17Defyi9o3JdHaIalI3c95AwNoDxAO7vRpGMBmAXXpVlxuwD2Yr8/Zxrg8g1dBPEZXTxTy6qZJ7FzHlrCvwecC27Nrr27sFOxHN4AOrrYEwLaVJGTh9k/sYA26hO+hfqUYXj1h2mlgJn8OtVZdQOcw6tdiIc9+0pbNxx9ijuhrq+SN5YEEXDlgb67uzlKU6dw+2JOAB8NXnmeu1v8v5+3omQy2BYHWXJ0munGjFMa8xzoA6007SZFL6c0HvU7DNmYWZvDSvpX88NXGdHJvwy617BkkOQ2GMeY0yK/yq1bqQcWqLb+9YWpoKouQsoptitfQB61gslZHmK82TKNkyrouqkEYILwi+Id6+S9ZyMQt49m8eEC2DOB4scu4RfJUaleZyUOze9DHyolBE37l1eIl6kIOY+aE0MGyPt/amqp1Ayy4sJYrY4zYhhrjToOcydvGsomtI4M/2Ms0zQYU6YyeFUInGz8O//kG5Rq7SJKyK1zezZWwDeLMw3fUfVjIuG+6sSpAuw7LGC8jhYwoDq1bjYGRZ4z3hyKNuyc0ozofW/xm35STNdeTi9UOSSpTuK5LcW0b0CviD5aaaiK3jG9ecj6WAeP5R+ZDWqpBp0HJ9O2D6QnQI3wlz2sLmfLb0ZwZrHIaWq9OM+zElYfCGL5XB0S9aTypt2MeymnI55HRNdQXtiWX3Sh74WRxX7JDkxHce6c8XyefR9+uSaARZ50zFL4gFQmL2BIgXML5mwGH5eTUupU6MCqTvmUgQIdeO0qNSCR5R6ayw3P1WNfXl74PtdVl/WZhXHbZpH+uTRmnoZm2yGwCGXniBn/u4CI5DcYw4jQoEhayhfp6WrT+jkkVuIh50W+o1s8D9B5xmNrxOfPVhmkKGTvFV8PmmnLBVc27USFj329Qut93Ao+bqlVRDh5Gu08ERSq3j/KjBazZKvIEy9zXC2P4ni+IagO4I6O4D/P45+h2HHfYdFTXmNOQf/JjBlqDVXqs01+sT5nCn3pWISya8IO/NeuOyHhxbhCtAfqMPaptu4WxnOwLAn6cdkJsx8oYv6wL3T3bcdw3O3n8agYLZHk8E9maL/+QRJlcTrlcxtQNPRk4+Rhz5XLK5XLK5Qo9N1Bx2iFV5zrFV2NsbLqA2qYay/cblO73nXCcYr+RXgw5DYoELmoJAi4M1y9kFp6cyrqV6TQok/htIAiHXtyhVyiGnQYRU9j2qBlQnAqZicupMu3dD65h1YTVqD17Nl52F/HflSBH2tV/AbigTnXD6XfyjARkAsDdnfhw1iZcyNad/HWE/8BxiIjoh+dNLXUTiVXVGvCyB+7fuo4s3eZM4OD3KsZNmoRJlbFNeAuda6knviuMJVzbL8PRU3/jt7Vz8HbXAizq+SqW/yMDdQ+VEEX2qV2IU/9c76XW8CpH/qMKGRKj/8YdAEBVhPR5HhplNMxaG6ZxROPw19BCneDh1DEC3etoZns4wr9HJ/WKLAA3f8Nv13TGlIfgYbT7+LmHi4sHYtD3/8D6hYXY9GEblJmCd/RH784eQM42LNyrXhWSG4MNF5uif0ttqykXD/7BD+9+htPKaug9vg+0uqgYKx/0nhQGd8bhi3Hf4ErxintZPH5ZfQpKALXbNNC2XceGaN/UEcA/+HH1GRRo7jOAPG4JRix1xcIT0Vj2dm+09fOEk0Uq/tgHvPRCDdjZ2sLWVokbf99C9aAGcLG1ha2tLWxtrfXkYInTDgDAsTHCX2uhzkVyQseI7trXwdEfPTqVWCpu/vYbKtFUS5FnIEElZOz8cBY2Xcgus5rK0X8gxkVEoN/zznq+cwWwqooaKqHgenmFou1D6Cdn1/9YBSBgw86bMzX2KJi0ujcb99ugE14VgZDClUEgLDvw57IPcyUok75jiJWGNwhrejUNZf/R0zl/1XYeScit/Kfl3H0c6AqiwQyeMeGsmh1lIg26OQ15jP00iDZSToNxDEYa7vPUB/XVtujMsN163XTjyM4zsjhPyLkvt5Q8QaoxZ22IRJ4RxxOxV5mt5wm2MFb11KQ6Z08OP2T6iVk0T5F25deWs70tCHjxrQP6nzBJBa8tak4AdB24j7lUMnXDq+wYKa56q6FIw/1zM9kQIBDE75MNP7sKaWvYFiBQh5NOqOPY+Yc5whsErNjpF10DzeW+ga4EQIdeUSKiPQom75jHb2O1K6gqEhYxJGBiaRRKkcglbRpz/DETz/oitVOKnBlxJxh7NVtP/kMhY6fWLdWX53A+lKkaijQok/hdiJWGjkFrr6YM7T+a0+ev4vYjCcytdCEX91MDztArlIeKNAD2PsW1GhRI+ycTxQ6nkLYVU78UMHnBANQu79NWkQyFCgDWdrAxUh7AqvYgLPywlUZmuhIZFw/i1xVzMW1EGNo38oR/nxnYHG/oDYRKpG4Zgdatx+B3sS8Xs7RTZbbLCyCvjGRVc8LSGcETv0SE98NGMJ5VFMjPLH5+8kKAj4POftPcu7gBP/2j+rn2m9PQzVNHhuasDZHYegagTXB9WKacRvSvKzF/xlgM7dsNoS8GI2TgCiRpHW0o5lWB86ugdmXnZyPY2QIWFg+zWcOr90akiWq3ADEL5uDIAwA1++HNNuolamWwRhV3lY3dTbkDWeE5rPi+CMNHNYW97qGiEZB+bC+uAYCNC9yMVOy1dKgO7yoAkIz9R1JUf3SohxA/GwAC/r1xBw+0PvEAd/9V2VvdkAami/vBGrX7vo8xwZoVVB8gYeuPSG7SFY2d1H/Kj8PBG9bwcjExbonUTim28Axog+D6lkg5HY1fV87HjLFD0bdbKF4MDsHAFdqWashUlalbMKJ1a4wRbagaWNXGoIUfopVGlEOZcREHf12BudNGIKx9I3j698GMzfEwqORyt28JO5VQUFAeoYhZcgkAtt6N4a3ugIwraZABgJCBPdM/xZ0xC/F6PX2xLRNY2MDOGkCREoKBjgAAWLqgbeR+HFkyFC1cdHdCZWC75mJQyACsStQ2XwCA8ha2z/sBJxPuwmBZRF2KBCgEADb2sBZleE8Zzk3R9XkX2NvbQPfrlXv5zTOHJeydixcUO6OGq4lBTJeiTPw+93vcAACnrvhoUmudqQkz14YYhBycWj0JrzxfHa71gtBlwBgs/uMm7Py7YtiUuVjyWTh8dD+jj4qcXwW1a99kLNbu3Y+9e/dWfNv3B3Yt6S2uZHHBOWzcmQYAqP5yOJqXMYJSrG1tYAmAshxcXfcZjr80C/18xDRiCDmybqpvLjaOJm6uVrBWN5WTpJpQg5UPXv18EgIAxG8/gBSN6HZRxl/YfEYB1BqOBSMbi1t6r4vsCjatTkSj3i1QtfhP14/hwl07VHc28b3FakeNkHMKqye9gueru6JeUBcMGLMYf9y0g3/XYZgydwk+CxdjqUrc2j4PP5xMwF3RhqqJJVzaRmL/kSUYql/IeJCwC3MHhWDAqkQdJw0VbL8IgkoosC+PUABx0xNay8OCVzJFEJj1x2g+/8LnvKAvsiGKDG5oZ0mgDdfqxj8MIc9iwrEorv5yOkeGtaOfzts0XcN3skxEKmMzu9qBNqHry4RZDJKzm2FVQPjPYVyZtGFTyJmbnsykpKSH3lIyC8ofXjY1PaFGnp3KLJ0cy9z9EWwUspgJZeN0zx4GpycUTFzSQm1zzbjwWvkuVuGpSAYABOzY4eurZbPSSfPWhilkV7mij1dp23XCueRYplbotzipS3WMJ4cfKpP+p6Ii5/dQ2n18CMnfMwggYMPQDbeNJrdlbXlJlcXv+SJDXvqUp0xE6DXRPz0h55V5Aarrbx3KMjMMmmRvZ3c7VV81mnWu9O/KG/z+pZp0tXNm4Ltr+VdcIuP+WsN3g5xo7zeIy84YWappgvyj79DHuim/vFragVnbutEOgfz2pqkRUbx2ZFdXsI9XqUbqhC/hsUztpF1VIrH6GM/h1G+qGdzc1Y6wCeV6Y20amp7QQs6shGOMWv0lp48MYzs/1VRPyeYazp1l+ktk+1rkcHdYFQL+nKNXKA85PQG7mvAvyYW8gpTMvzF76mmELRmPphWOkTnAu4EbgLtIKZPAVcqD6+sxrt9IrL32ALB1Q8OQPnhzyuf4ftsRXM0qxM3oueilPrfcEweQoBO/yb/0G87IAf9XglFd3LcFZFlILwCsverDVC6NLrl7BqG2dx3UrVv3obdans0x6+yjyLwBbKvVhJvmY4CQhj2Lt+GWgzeqagaOhAKkxZ/G0f07sHnjr9hz6CSu3MrV4+0+K1ij5ovdUR8AkI5Lt3RqpCpzEH94G37eFYPkQp24zb3zWDjyM1wG4BG+CutG+RmowGnG2jCKHJeXDsHYnRmqXy1a4LPdP2F8iId24Stq/mKYCp3fQ2j3caLIy1AnCfogsFFVoyFfC2v1u2My8/DyF+8hsDhkX2Fs4d2qhaq8sjIPdwoMh6eL7mUhWw4Azng+qHbJ3wtPLsePNb/D1fQYfNQgHpu+/BgLtyej0eR9uHZhE8a1rGDCXlEGfl/wI1J9uqJDreIOVCL3VgbkyENajkLnA7qI0w7kl7F0yFiUmupn2P3TeIR4aEfNRZlq/iX8pjJUBIs2VA0eXMf6cf0wcu01PIAt3BqGoM+bU/D599tw5GoWCm9GY26pkHGgrJAr0L4MWSqhoH45hSKuBVsPNKylvsNknMXvcybhUJfFmBr0MNZrh5r+XgCykJhp+EVY8luHsGX7Knyy4lzZapSWjqjTeRpWf90DDgBgYQkLAMLtKIzrHIygoEC0HrgOdwCkrhyMtkHBCB29BamGNQIAkP97HVkAPJ6rJWJOThvXXr8g7c5tpKamPuSWhvTsS/isZYW9MvEU3cWpr4Zi5J481AgqzYYuvLgcAwPc4OMfgmGRy/Djxu8xe3hHBNSpBq+WgzDn97QyWb5PAnnybnzUrzX8arqjWrVqBje3Wu3w0akyVlRu7JsMxrAmAJCJP3+LL7HLoqxD+KhfOD7dm4Sc61GYNmASom6rjU1Ix56pAzDrbBEcXvgUu1cNQV2DWjUzbQiFyMosMP0W1KJsxG49XXqc/0D0e66s/SrupiFP949qKnR+GjyMdh8nNm6+8LQGgCrw1PLSy2JhZatyulqMRETzhxlzS3FtPQJh3gCQiMNxhnoDyLv0pyr3wb0PRrQrzrtQIvPkX0i3c4Gjqz96T5iLb9b8iFULI/HuoHbwqdCchIoH1zfji515qN6pJ/xLOrAIsgI5gFs4lWhoVr8Ycdopyo7F1tOlxuQ/sB/KmqoCd9MMXBvhNqLGdUZwUBACWw/EOpWhYnDbIASHjsYWU4aqifwWDm3ZjlWfrMC5skKGY53OmLb6a/RQCRmWKiE/XPvyf3FdJRTUKq9QtAMPhlCFKopDJJb13mZ0ttgwiGFyD7xOd4DB3xvO4s87NJyeAGHbjov01iwQmLquE20Aug3eox2GVyRyaSsQrv0NrGPXT3ZUbzqKCBuaJek/MaRqG65JE0gKTFkVTJd265mhexxJUmDh9X384tX6tHP1Z1MXJ4b+XHxkHg++5anucy+OKF4TrrzD/ePqqUObgfzkjN7KIKKQJ+/mx0NC2aSmG2v4teNrn0Ux0eh/d5/nF0/mTxrFlAovLWVXT1f6dQrjG6Pe5rAOXqzZZTjHjRvH0f2asPpzYRw1bhzHjXuXkz/bwAtiK7sZnJ4gSYF39g6nD0C4vMI1NxQkc/nnu1044UBWic1k7x3BHnMuUKZI496prWgD0KPXYp4VcQ5mo42CWEYGqio51hm2halGZ2OyGdXHqTSU6vUWyywKUKZxyxBvjZCrByN0CwiwHOenw1OjXUUil4dYE/DmyL8Mp+TfT9zCSSHqEHWzr0qmDgWlUtT3U1xbxGYA4f4Go7Uus4I3f+xDV4BO3dfpX/2mTOZPvZwJOPHl765pTKUJvL0+lA5VOnHeseLCTpVBAWMm1yVQhX13aFqrgomLVStIPIcfLFvLQgcx2mF2FPs4lYb9vd46UKYyojJtC4d4a0wNeESUqXVBKpi4tBUBV/Y3ZaiGpifyDnG4JwjYst2iy3orZwqp69jJBoTbYO7RFrL49jXJjmJvR9AmdEOZ6QcVhqcnRDoNSiavCFJfPE++sStDlMGaQri9gaE2YLUhf9BQ7a6SgREgqoZwwtrDvJJxnwJJeU4SYzdOYXtXEC7duDxe+3ILGT/zZTvQpuOPFF/b5j7PzWxIQHtOzfwRKMu9zYvrh9DH41VGpRWwoKCA6XuG0Nu7PzdczWZ+QQHzs1MZf/Igd65fzPf6BrAKQJ9uH3Lb2Z18o5Yfp5aUB1Mwae3/6AUQLj25WuNGLbvwMf3UfVLbUMETIY834lNZaOC6y2+s50Af0MonkN0HvsGB3ZrTHaBj6ynclWLguiuTufKl9vyquAJL/gnOeDGUMw+qqwoK6dwc1pbvxxaqHabObP3JRb0iNIlRp4Ek83lqXqiq+l3bT3g0NYaRPSbxiMb4r7i6gCEtIziinSthUZdhXxxiutGbbinmog35lS/YpOQG35TzLhvoGzX5MZEMLK74CLBG2EIeTpWRFJh/bT+XvtGYbi3Hc37/6iXHODbvw+FTZvO7fUklfSX2/LR5mrQrMPfoNPoDdBuwlbd17m5CQSL3LRrBLi+N4qoj2zjUHYTXCB7KJ4XsA3wndBSjDRlGMYKMqTuHqWzEqg0Xx+Vr30SFLB6e2ZYOcGT72Ud4R3OnkM3jn4eyCmzYcvIfzNA5P+XtrRzgpu5nS2va2NjRwcmF1Ty86ePrx8DO/fnO/K08n2Xwtl0GITOK/V1B2L/MDTqdnrM7jM4AUWMUjfhYpEjtkPmMiQzUqEBZg2ELD1Nlqvm8tn8p32jsxpbj57N/cT4fHNm8z3BOmf0d9yWpLVXI4M8v2xE2HfmjKUM16TSAQFWGTFjLw1cyeF8lZCbFbuSU9q4EXNhtebz2eFae9jUoXnLb9EtDeVUP7TSQufsG0hVgtfBfmCbeDoyjSOTXwZZEvfd5ykBCZf7Rt+kDFwYNn8M5ozuxdkkJWvW/DrUZ1G8mf40vKOPIFHucz8+PN3Bh9KC8weWBIBoZec+G2VHIkzP8SwbhCm/VwrlTJ2NSkZPG23dSeSXmALetW8Z5H8/ktFGhdFV/xv2NaL2ef9bOV1nNuSe362ZgkiSzuGdITfqEr+JlDY/jfuIvHNvMlqjejXOPZpV5SpDFzecLfsN5sLhBZS5T1DdJkhTSNvKVgGE8kEvVOuRBdRm6SbOuSDkw6TSQ5H1e+3UKX/KxIFye43PezTnxlxheuhDD6F+WcEqYH23gyhdGLeWBG5ohFIG5CeeZYsy+zEUbsnh+G1abNjZeDGjix8Emn2YE5l38mbMGd9BOxrQCYVmDLw5fzphsgfKkbXy/uz+9nUvXp9t3XMXiPDfR56fJU6ddJe8cW8h+9V1Yt9sYRn61jF9/Gcl3h/Zmly79+N7Kv3lbTlVUYNNQ1rGqynbjZvLtHh05fP11I9dFYNpPnVU3WYCWNja0sbJQXWebJpyhVTe4kAlbZ7LPc270bNabI6dFMnLqKPZt4UnXhj34/qbLzNc1HpKKjGP8dqgvLeBCn/oN2bBBA9bzrU2fGu500hxTPHtx0Tm9jxVlyN07gK4AXQfspG5xYWXKWobagnD+H7WCEPoQoR2SpJDHiz/P4uAOfiXjGQBaAbSs8SKHL49htiBn0rb32d3fm84lNVHs2XHVTdX4lHuAr7uDeH4+4w13iApDTkP+Ub7tA7oEDeecOaPZqXbxO1os1f86sHZQP878NZ7FFcZLKE/7JRSX2m7EmQaFUglOgzJ9LyNHfcTfKs1jIFV16jvTDn786LyB50FlHtPSNQY9RS5Tr17gyZhYnotPY4HB0ykuwlObE4uLkohAmfwDO9iAzeZdNiLKZwGBuefX8/0+TekG1YDfstvrnBj5BRfNGaIKzRt0GlRTG1bNdMqyFpOzhwMb9+XG1LKdJ+Rf4IpBdWlhWZfhC6KZfJ8klcy9uI5vNa7Kxh/EGqhhr+CNb9uxZvfNqqkYRQK/au7CUKOp4UYQ5TSokWfy/J6VnD1pBF/rH8b+w8Zx+ufLuOrLcHrav8A1qTqqK4jl9JD/8ed03RFAE3PThsDkH8IYof/lM/oRZMxOucZLZ0/ybHwqc/XZgl4qcn5PsXYFGe8kHOdvv2zkr7v+5Jnksk4eKTD/+t/cuWU3TyRV/AVWhpEzM+4v7vplAzf8souHL2UavIb3r3zDPl62rPvGWsbp8ygoZ3bCAS4d0Vp1M272qbhVdrJUHt8Tzcs6715QIWf6qQM8nlQo4ruL0I4OgiybKdcu8ezJs4xPzdVT6Ek/9099wPoAa088YWBc0sCQ00Al89LSNRwCBXNTr/LCyRjGnotnmmEhl6/9YpTJ/KGDDdFsHg0HDivBaXhUCJk72M8FbDDjjKgKZ6IpmRMdUDonqsxlUqK+yl/FKHh9eRta27bndxV4CdF/ifvn5/IF9VIr15c/Y3RqqXWVLOPSdRruX+fedd9zxTefMdwbdGw/jV+v+IFbTmk/GigSl7LTyz8wxZD6lXd45POu6nczONHNVfXCtOo9jeQD3D/DD/0cGbT8huoJoOBvjvOxYctl6t/LS3mcBgPk/zWS3nDhq1F3Sgc6IYfHPmrLun03lxGjLualjXwenvAKZ5+v1DPRT4XOT9LuY0FI5889HAnvEYw26T/m8tCYmgQac/YlcTfvyuKRaUeL0nyCAaWGytykRL2VUA07DRWlnO2rUVxfzjbWtmz/3Q0jejLsNIhbPfEIsfTojk8/CETK918iOqsSSwvlX8af/wDWzV9Bi6oAUISsfZMRseyyqjiVPgrP4NuFZ+D7zhcYWtd4RvN/GzkStq3BMTkA1EbE7EnoXLM01b9IVlBSFVSLIsLa1h62967geLoTgjs2QlUHBzg5ahccsXZvh9ETOsPDkPVZuaPd9L24FrcDC99/HX0HTMaCjX/j/PYJaKH3HQpFyNr/Bb75pxZ6ta+hWp5GBWQKBa4fvIi7uoc/JgRZPmS4i60Tx2PZ7qM4um8dIvu3QcdPbqHXlJ7w1vdVNDArbRScR1RcI4TWL5NiXvlU5Pwk7T4eFBm4fO0e4PU8fI0UpFLhjPqtagK4h5xCE9n8lcwj044W+bisMlS8ojJUFGXtw+SIZbhs0FArk4q0X4gz3y7EGd938MXQutpLocWi7UM8IfKPcUqjKmw152KleYVC2lq+aAnWGq9K1FOkbOWol0YxKt3Qc6eCSWu60tVrKHdmmngE/M8jMDNqoGpaAqDvm+t4Jl2VzFZwI5oLwurRVT1vbhvyMbcdOc+kvNLrmrmlJ53sylNo5CGRJ3BxGyuitsYbE2UX+JGfag50W0X6sxIiDQXHJ7C25vyuenMN28Bkwy6+NuaijbX92W1uBZNKy0mFzk/S7mMin8enNCLQmFMPla4U0oeQe5yRLayIOuN42HBG4qPjEWhHCyGNa1+0JGqNV407ihRuHfUSR0Wl649uVnakobztk1QkrWFXVy8O3ZlptO+MRRrMw2mgwOxD7zGgensu1snyrjDK29w1pgldG4Vz6vSxHNzvXW5IMGw6ypRNDKtRh69vSTV4wZ8tCnhlwwR29a+mvtlZ0LlaVVbxDuSQBX/y3M+jGOhemsTWOLK4WlweDw73pFWzr/TnMzwCFIlL2AJgwKwzGvN6xa9g9ufHIuc1tagEp4G5Bxjhoe0w2LScxujM8ljYk9fG/SvfsH/3SB7TO9f8CCjn+UnafczIb3LbO81oZ/88Ixbt4zXdvAahkDeil3FES0faBozi5sRKstty8wi0o4WSt3eNYRPXRgyfOp1jB/fjuxsSDDsole00lLd9ZQo3hdVgnde3UE86mQ5m7zRQ9U71b3qyTuB0HqmEGhAqFMy5foEXkvKMDyaFcVzazZdtP47Vk9QnoSjMYtqN60zOKl2pYJD75zirkRV9p6gTFuXpPH8uXfeoSkbG9Gs3mKPrpMjSmZhsou8NURlOAwXmnP2JH40MY9eeAzlu/m5eN6hoYzxBbbCQF1Z+wS2PfeAXeX6Sdp8QcqbHbubnI7szqFUbtuvQiV169GTX0E5s3zaQQd2Gc/b6Y8ZXCD0WHoV2tFHkXOeFC0nUCLbqp9KdBhXi2i9k3NJu9G37MWNFCeWpcBpICrk8uaA3Ww1Yw+sGszorGWU6d73dmqEfRrNcD4AS+snYyI62Luy3O4dkIS8u6s9hPyXpHmX+5P/Fkd4g3GrT19eXvn4vcd7jSAI0xJPQhrkjadeMECjLz6fs0dyXHw5z0c79k5xSy5pt1+svtffoUDJ919tsHfqhiSinwIxtgxjg60tf3zr0tgct9DgNFiSpm+fwZHmA26dicd+/HepXTsVU4zxIQ8wZBZq29TXrsrNPDbI4LOrbF2uq90dX+yTkBozF3Int4SH25WvmgjIdRzfvwIW76iQqq2poFTYAbT2f5Bd5zNowdyTtSojGHLQjw43o/bjTrCeCH+uA+ABpMWegaNoWviaEcu/qDmyITkPxGz5sfLpgaF8/LX2ZodMg8fRThHsZqSh08YGHvYklAhISEhISTw2S0yAhISEhISEhCukxUEJCQkJCQkIUktMgISEhISEhIQrJaZCQkJCQkJAQheQ0SEhISEhISIhCchokJCQkJCQkRCE5DRISEhISEhKikJwGCQkJCQkJCVH8H7rGYHFf4MeMAAAAAElFTkSuQmCC;" vertex="1" parent="1">
                    <mxGeometry x="-595" y="1000" width="525" height="46" as="geometry"/>
                </mxCell>
                <mxCell id="40" value="" style="shape=image;verticalLabelPosition=bottom;labelBackgroundColor=default;verticalAlign=top;aspect=fixed;imageAspect=0;image=data:image/png,iVBORw0KGgoAAAANSUhEUgAAALcAAAAhCAYAAACbUTrBAAAAAXNSR0IArs4c6QAAAARnQU1BAACxjwv8YQUAAAAJcEhZcwAAEnQAABJ0Ad5mH3gAAA+5SURBVHhe7Zt7WFTV+se/XEZQQ0ZNvCCKKCBaKl6Q0kQuWYjEIe95OaZmj3LIS5qX1PJYmqfjedCOIFaWPzXTvONPLDE8oilBigiW4UgYDhfFmRgGZpjL9/wxw20z4AwgHYrP86znGWatvfaevT5773e9e2FFkmgu9KUouHMbOdICFBTp4eb/PAaKrYWtWmksOjVKVVrUGlgrW9i3s4ON8PtmQQd1qQra2gcFW/t2sLPooPQoLbiD2zlSFBQUQe/mj+cHilHLJDYj6qzPOM9/ELsBBAZza5ZG2OTxoy3i5Y8W8vUdGSwT1rXSMlBn8bN5/hzUDQTAwVuzaMqkZpWbJFmWylVuIHq/yWSlsNJMtHk8uWoJ/0+iFtaYRCdL5Z7Nb3PZ69M4bpgzrQCKp31DubBhKy2IMqauciPQm2/WIVKtO/njRpt3GWfvAGLfIHi0E9aaiSYfV44fReJdtbDGNFYitHfqh2emv4u9ny1Cf2F9Ky0PbR4uG0RCUB0iNbvcD1PjkAkRvCcMQQdh5WPC2nEQJs6dg0l+nhDbWgmrW6lAr0aJSif89n+Th6mIywRE3hMwpA6RLJNbr0TOxb3YvHwBZoaPw+gRIzAqIATTIjZid8JtlOiFGwhRIPP0NajQH+N9OlXbuR7lCjlKW8h5/Z9Fr4JMmg2JRGJRuf1jCuJjlyCgT19MP5gLrbDfJkcPZc5F7N28HAtmhmPc6BEYMSoAIdMisHF3Am4/WiQoMk/jmgroP94HnapZrC9XQF4hkjBOMYm2kJdjFtCvtwM7Dgjlsh0n+F1mLmXFUt5I/Io7VoWxry3YceQi7vvJdPxDkixL49p+IHot5RUlSeooS4lhxNTJnDHrJQ7xCGNslhlxdNk1runfi68mFgtrHon65iZ6/ZFibu1DXtu7ipN8XdkehglWg4p9f07dlkK5jiRVzIlbz/AR7uzeSUyxuK7Skc6j1jOlniGviZaFl2O4wK83HToOYOiyHTzxXSZzZcWU3kjkVztWMayvLdFxJBft+4l1d1vGtLX9CPTiUoNI1MlSGBMxlZNnzOJLQzwYFpv1qAmljsXpu/n68A6EjTtnxqYZf7wQHeXfb+aYdiAc/PlhWomwAUlSmx3N4QDFk09TRiVv7ongxIW7mVGi4KXIXgREDDpcJNysNq1yk1Qz9+wWTh/ixM4u/TnMdxRHjRKUkV50NMr7RP+RgvrR9BsXztmLVvK96BPMkGmN/SqZsX0cncQeHBs+mwsW/pVjuvZg0LwIRkS8zpcHPknP8AWMiIhgROSbfG9/OotNOlETXXE6d78+nB1gQ/eZsUwzLRJ18u+5eUw7Ag70/zCNJk3SZjN6OAjxZJ6WkcqbexgxcSF3Z5RQcSmSvQCKgg7XJ7eGeWdWcoQ9iI4h/CitmKYPpwIN7+wKoD1A9FvCJBPmFB4OZluI6Pd5Bi/8YzZnbDzHfC1Jqik5sIJz3ohhiqz+vZCtcpMlTN8eSidY8al1V+qQS8ucT8dSBBDw4IYbKmEDkyiurOEo/7VMLDTIrss/yHDflfxeSVKXy08CfMzuqwJN3hmuHGFPoCNDPkqr43ir0NzZxQB7EOjHJaZFYnBbUOT3OTMu/IOzZ2zkOYNIVEsOcMWcNxiTIqtLbi2lx+axL0CIRvDdK/JHiG1EdoYzO4OAiKOjJYLco4Ln5zkRENHFaxhnfPpT/XlmtYR7F4UyKDCQgcLi78OetmCXoWNr1wUGMihkHmNvmu695cutY+GpuXQGCLsgHsiva2QKeOgFe0PI0X0BLyiE9abRynNZUFbRp47SLyZwwF8TDOdKfobTXP15oLDmNvWhlR7jvL4GJ0a8e6WOJ78QGc/M7EwAFI2OpkSQxFacn0cngCIXLw6b8Sl/Mj3UplOBpRlRmPbKp5CgEybvO461Ix3Nm3mKvRE61A6ABhc/jkNO9ZmJ+g6+TSoEOvkhxM8NuR/6oaebP5Yc/Bml1ZpVYtsFw8ZPxJQpU2qXSS9iUEdHuAe+XLtuyhRMmfQSfLuJhD3+MVDfROzK3bgHoEvofIx5so6RUWTg/39QAQDajxiPgU8IG5jGxtEZTvbGPrV3cSL6KnqNfxqOALT3M/GjDLCpY5e1KM1A1LRX8KkE6DR5H46vHQlHs7YVwzt0KOwAaC5+jLiaIuHOt0koRCf4hfjBLfdD+PV0g/+Sg/hZKJLQdsqTuMzdGKcF72GOqVc/dVLCSxHOhrtFmyB+9aCqRvvLTvpYgeIppymj4c68y9+esB3Fj3MMjxRVgYRSpRmX9p85LJEnclnYdK76+AKl9cy9y66uphtAwIq+u3JYEVFbQtnVt+nRbjh3ZBu2LrkUQWeRN/9t/Lt+5Exa5m5w4Ylg7rFMJMO+AAJtGFRTJO70sSLEU3jaIBIlu/xpD1uO+tj4O1UFlEiVwju3Gjd3LkFUFgC4I3LjJPSyrdmifqzQpp3xjlleiF9lVVec/OopZFCEwRX57TZd4O7qAGiVKNMB0BcibnEkDuU+/kRUi8ZxLLYe/wKb5z+H7m2ElRVoIb34Ne4AADww/pmulq8n0Rfh7JZo/NwzBM91N2xNjQoazR0k3vhN2LoW6ps7scQgEtwjN2KSZSLBqk07GEwqR+GvsqoK+VWcyiBEgyvy223Qxd0VDtBCaRAJhXGLEXkot2a0oZMew+pNP0APAMMiMHew6Tc/daOD4n6J8bMKisoXAiW4GZ+KUngixKdz5U6pJ9C2J3qLbVB++xD26ybjL251jliToFcpoAagUSqbIZ/7O6EvQsrJTMPn7mPh72onbPFIyu/sw/uHZXAJfhFuxs1FnXpCjN/wze7/4H59qWidFMdWb8IPBpEQMXcwLDZJcR+VJikM4RUAlNyMR2op4Bnig85VIoFoi569xbApv41D+3WY/Be36mGJmre2DjXmPW3oG5NtcjFKvehy+cnIitzpcMbeNT6+tL8wZhiIpzYwvdpEW5mxncE9utLvtUhOD57LPWauFbE4LFFc4uoXhvNpDxc++YQtra2taW1jT3EPNw7wfo6vfnlXuEXLRn6WMzsZQ8uw4zQjuSpAQ8m2IQQGcN3Vatlm5fdc2ReE17u8Xk/CRH1rK4caU5A2vjHMtlwk5n4ysjIHPzy2Yny0/CVmGIGnuKGmSNwe3INd/V5j5PRgzt0jobrGwilNFv81xCimlQ93/mJOXCWg+BxnP2nso9t8/qfaDF1VIOHd4tp96pRSZqbeYG6JGbF2BZbK/RgoTlrBMZ596Nq7N3s3qrjSbVA4/32zHlssRJnyFvsABKz5zCd3GxRvU5XP29myWjc4Vb7pcaxCw6x/DTGKaUWfnb80YP/FPDf7SWMf3Ti/pkiU3C2u3adOSWlmKm/kllRm9qxYsZ678EsE9JyORA0At9W4mrkJ3vaVTwOzUKW9jae8N0ECoEP4SWQfDUUnYaOmQHUd64aGIS8mA5/4mZkGaGK0hck4eux75Kv0MJzAhmIFGwc3BE4eDy8Hs1IJj0ALSdQI9FuaBqA/NmakYe1Ay8OShlOILwN6YrpBJKy+molNlouEt5/yxiaDSDiZfRShDRGpQvyy1FXG2TXoEH6KDysvCXNR8fp6D+PV5sCwwwXm5cYbRAmzzpxiunlJ0z8Xunx+EdDGMA49FvKimfntJqNiSTNAOITzlOUiUXV9PT0qXAw7zIIGDnPlrUKjKKwM4LsOcEbbKv/No/QG9u/92fDZ5VW89YKTebnxBtEe/V4IwdPmJU3/XCjSEHetHADwhM+L8GruB5tGgcIqkeBsuUi4sX8vDCa54NW3XoBTA4e5cjNrewdUPLwcuouNaRhz0aPw683YlQ0A7THunaXwae6T2goAoPTns/hOBgDWGDTBG47CBo8ba3s4VIkEsWUiQV/4NTYbREL7ce9gaSNEqpTbzskNnY2fdeU6y+LI0mvYsfYo5ADsxnyAj2a5wrKsZkukHL8V/IqcnJxGl3v3lWia1b5a5F44ixyg4fntxmLnBLcqkaCzTCRc27EWRw0i4YOPZsG1MSJVBijVYiWnuYmsmYfQ8OGP53nkwEleyamajRpQMm2jN60Bossk7s02M53XwpGdCqeDMS5sfOnL1VfrWCBhCbo87vMXGfp0XW5Y7NTsVPz7FwinuRQmtDQPf+T5Iwd48koOhQkyZdpGeluDQBdO2pvNxppULc9dxusbBhpPzIqqE6N7wMT1oQyYvpJbo6O4eup4vnFcakzFaJl3apEh+G/7LP+ebOYCqz8EGioe5PHevXuNLFLmPyxrmvNWFMeXOxgumB4Lk9jcc8kKyq5v4ECAgCtXVInEB4nrGRownSu3RjNq9VSOf+M4pRWvQvJOcZEHCLTls39PNnOBVf3UWFuiexDPec4g4MgJnxle4si/jWTQ4gQWVezsYTznB7/PdJWG0vgVHCoC0SWEUdcetSS2lceN/OwsdgYIOPNvl0yuhG4edA8YP8+wxshxwmeGlzjybxkZtJgJVSIxfn4w309XUSON54qhIgJdGBJ17ZFLYs2l1sIpReoH9O8Aws6XGy7eY/L6YC5NqnYP0NziP5/x5pz5oymGFV3Dt/B8vjDV30rzU8zzr3UzPHndVjL1dwlJqqFI5Qf+HQjY0XfDRd5LXs/gpdWfJhre+ucz9J4zn6PFoJVrOLecz6/10qgx1JKbJMtuf8Xlgc60giM9Pbtx8JJDTM5IZ/K5Q9y2PJweIlD87AJuT8iu8a9AOnkWr+c2QezYiuUUneLUjiBgzeFRWY2OV5uEstv8ankgna1AR09Pdhu8hIeSM5iefI6Hti1nuIeIED/LBdsTmF1TJGZdz61/vb8ZVL2hrEU57qcn4MTJBCTfykWRuh169POEV18Rzq9ZB+kWCZLm9KiWy1YiZc3z2DT4GI5M7foYc9yt1EaPvP3B6DvzG5Q5z8LJq58jtKHJ4cdA+f10JJw4iYTkW8gtUqNdj37w9OoL0fk1WCfdAknSHPSodrjKlDV4ftNgHDsyFV0b8zOEtj8SxQW+1g10nHiCDypjIx1l371DX9cwHsxrooCpFfPR3eO+l/pz2JT3eFbalA/2x4mCF17rRjhO5IkqkaiTfcd3fF0ZdjCv0XM4y+WWf8NpYhDow1e2xTEpKZ6fr3uZHiLQOeL3m6G30tKQ85tpYgJgn1e2MS4pifGfr+PLHiLCOYLVp3kNxXK5Sy5zsYswTwtCHM79d1vKXaOV358SXl7sUtsjiBm+/26TTCwtj2jaeyE0sEvN70TeeOtILKa6NOZ1Uit/LtrDKzQQNU0SwfutI4id6tIkb7jrmVDWjV6ehi+ionH08j20cR+LWW9GIqSPhcsaW2lFL0faF1GIPnoZ99q4Y+ysNxEZ0gdNZVKD5G6llZbAfwE4Zht6HlcugwAAAABJRU5ErkJggg==;" vertex="1" parent="1">
                    <mxGeometry x="-306.5" y="570" width="183" height="33" as="geometry"/>
                </mxCell>
            </root>
        </mxGraphModel>
    </diagram>
</mxfile>